<?xml version="1.0" encoding="UTF-8"?>
<svg width="128px" height="128px" viewBox="0 0 128 128" version="1.1" xmlns="http://www.w3.org/2000/svg" xmlns:xlink="http://www.w3.org/1999/xlink">
    <title>favicon</title>
    <defs>
        <path d="M18.0138568,0 L109.986143,0 C119.934922,-1.82756094e-15 128,8.06507841 128,18.0138568 L128,109.986143 C128,119.934922 119.934922,128 109.986143,128 L0,128 L0,128 L0,18.0138568 C-1.21837396e-15,8.06507841 8.06507841,8.32380132e-15 18.0138568,7.10542736e-15 Z" id="path-1"></path>
        <path d="M0,0 L112,0 L112,112 L0,112 L0,0 Z" id="path-2"></path>
    </defs>
    <g id="favicon" stroke="none" fill="none" xlink:href="#path-1" fill-rule="evenodd">
        <path stroke="#1C1917" stroke-width="3.00230947" d="M109.986143,1.50115473 C119.105857,1.50115473 126.498845,8.89414328 126.498845,18.0138568 L126.498845,109.986143 C126.498845,119.105857 119.105857,126.498845 109.986143,126.498845 L1.50115475,126.498845 L1.50115473,18.0138568 C1.50115473,9.52292908 7.94073449,2.43781456 16.3237151,1.58647658 L18.0895622,1.49924467 Z" stroke-linejoin="square" fill="#1C1917"></path>
        <g id="Animals/dog" transform="translate(8, 8)" xlink:href="#path-2" stroke="#FFFFFF" stroke-linecap="round" stroke-linejoin="round" stroke-width="1">
            <g id="Group">
                <polygon id="Path" stroke-width="9.33333333" points="52.5 75.8333333 59.5 75.8333333 56 79.3333333"></polygon>
                <line x1="74.6666667" y1="65.3333333" x2="74.6666667" y2="67.6666667" id="Path" stroke-width="9.33333333"></line>
                <path d="M20.6266667,52.486 C19.3206146,57.5292894 18.6619858,62.7183438 18.6666419,67.928 C18.6666419,87.3973333 35.3826667,98 56,98 C76.6173333,98 93.3333333,87.3973333 93.3333333,67.928 C93.3099944,62.6970436 92.5351892,57.4965764 91.0326667,52.486" id="Path" stroke-width="9.33333333"></path>
                <line x1="37.3333333" y1="65.3333333" x2="37.3333333" y2="67.6666667" id="Path" stroke-width="9.33333333"></line>
                <path d="M39.6666667,39.6666667 C37.8746667,44.5666667 34.6126667,49.1306667 28.728,51.3333333 C19.7166667,54.7026667 12.04,49.9473333 11.6666667,46.6666667 C11.1393333,42.028 17.1593333,16.1933333 30.3333333,14 C39.3073333,12.502 47.3713333,17.9433333 47.3713333,24.43 C53.2736862,22.9309688 59.4650966,22.998529 65.3333333,24.626 C65.3333333,18.1393333 73.9386667,12.502 82.9126667,14 C96.0866667,16.1933333 102.106667,42.028 101.579333,46.6666667 C101.206,49.9473333 93.5293333,54.7026667 84.518,51.3333333 C78.6333333,49.1306667 75.8613333,44.5666667 74.0693333,39.6666667" id="Path" stroke-width="9.33333333"></path>
            </g>
        </g>
    </g>
</svg>