<?xml version="1.0" encoding="UTF-8"?>
<svg width="54px" height="10px" viewBox="0 0 54 10" version="1.1" xmlns="http://www.w3.org/2000/svg" xmlns:xlink="http://www.w3.org/1999/xlink">
    <title>Stack 6</title>
    <defs>
        <path d="M0,0 L53.874,0 L53.874,8.56 L0,8.56 L0,0 Z" id="path-1"></path>
        <path d="M0,0 L53.874,0 L53.874,8.56 L0,8.56 L0,0 Z" id="path-2"></path>
    </defs>
    <g id="Stack-6" stroke="none" fill="none" transform="translate(0, 0.72)" xlink:href="#path-1" fill-rule="evenodd" stroke-width="1">
        <g id="Logo" xlink:href="#path-2">
            <g id="wo.studio" transform="translate(-0.4, -6.584)">
                <polygon id="Path" fill="#292524" fill-rule="nonzero" points="2.496 15 4.528 15 6.192 8.744 7.84 15 9.872 15 11.952 6.888 11.952 6.728 10.224 6.728 8.832 12.984 7.248 6.728 5.136 6.728 3.536 12.984 2.144 6.728 0.4 6.728 0.4 6.888"></polygon>
                <path d="M16.608,15.144 C19.056,15.144 20.304,13.288 20.304,11.256 L20.304,10.472 C20.304,8.44 19.056,6.584 16.608,6.584 C14.16,6.584 12.912,8.44 12.912,10.472 L12.912,11.256 C12.912,13.288 14.16,15.144 16.608,15.144 Z M14.592,11.256 L14.592,10.472 C14.592,9.24 15.216,8.168 16.608,8.168 C18,8.168 18.624,9.24 18.624,10.472 L18.624,11.256 C18.624,12.488 18,13.544 16.608,13.544 C15.216,13.544 14.592,12.488 14.592,11.256 Z" id="Shape" fill="#292524" fill-rule="nonzero"></path>
                <path d="M22.308,15.099 C22.759,15.099 23.133,14.747 23.133,14.296 C23.133,13.845 22.759,13.482 22.308,13.482 C21.846,13.482 21.494,13.845 21.494,14.296 C21.494,14.747 21.846,15.099 22.308,15.099 Z" id="Path" fill="#6A7282" fill-rule="nonzero"></path>
                <path d="M26.477,15.099 C27.929,15.099 28.754,14.384 28.754,13.361 C28.754,12.481 28.237,11.832 27.082,11.623 L26.136,11.458 C25.751,11.392 25.509,11.227 25.509,10.897 C25.509,10.567 25.828,10.27 26.455,10.27 C27.071,10.27 27.467,10.556 27.489,11.062 L28.644,11.062 C28.655,10.017 27.874,9.214 26.455,9.214 C25.135,9.214 24.354,9.973 24.354,10.93 C24.354,11.843 24.904,12.382 25.883,12.558 L26.785,12.723 C27.379,12.822 27.599,13.031 27.599,13.361 C27.599,13.724 27.269,13.999 26.477,13.999 C25.674,13.999 25.311,13.636 25.289,13.108 L24.123,13.108 C24.156,14.34 25.036,15.099 26.477,15.099 Z" id="Path" fill="#6A7282" fill-rule="nonzero"></path>
                <path d="M31.911,15 L33.143,15 L33.143,13.955 L32.186,13.955 C31.768,13.955 31.614,13.768 31.614,13.35 L31.614,10.358 L32.901,10.358 L32.901,9.313 L31.614,9.313 L31.614,7.927 L30.492,7.927 L30.492,9.313 L29.557,9.313 L29.557,10.358 L30.459,10.358 L30.459,13.482 C30.459,14.417 30.987,15 31.911,15 Z" id="Path" fill="#6A7282" fill-rule="nonzero"></path>
                <path d="M36.63,15.088 C38.225,15.088 39.017,14.01 39.017,12.723 L39.017,9.313 L37.862,9.313 L37.862,12.69 C37.862,13.526 37.4,13.999 36.63,13.999 C35.86,13.999 35.398,13.526 35.398,12.69 L35.398,9.313 L34.243,9.313 L34.243,12.723 C34.243,14.01 35.035,15.088 36.63,15.088 Z" id="Path" fill="#6A7282" fill-rule="nonzero"></path>
                <path d="M42.68,15.099 C43.307,15.099 43.802,14.89 44.154,14.56 L44.154,15 L45.309,15 L45.309,7.3 L44.154,7.3 L44.154,9.753 C43.802,9.423 43.307,9.214 42.68,9.214 C41.008,9.214 40.227,10.49 40.227,11.887 L40.227,12.426 C40.227,13.823 41.008,15.099 42.68,15.099 Z M41.382,12.426 L41.382,11.887 C41.382,11.04 41.811,10.303 42.768,10.303 C43.725,10.303 44.154,11.04 44.154,11.887 L44.154,12.426 C44.154,13.273 43.725,13.999 42.768,13.999 C41.811,13.999 41.382,13.273 41.382,12.426 Z" id="Shape" fill="#6A7282" fill-rule="nonzero"></path>
                <path d="M46.849,15 L48.004,15 L48.004,9.313 L46.849,9.313 L46.849,15 Z M46.651,7.828 C46.651,8.279 46.992,8.609 47.432,8.609 C47.861,8.609 48.213,8.279 48.213,7.828 C48.213,7.377 47.861,7.069 47.432,7.069 C46.992,7.069 46.651,7.377 46.651,7.828 Z" id="Shape" fill="#6A7282" fill-rule="nonzero"></path>
                <path d="M51.733,15.099 C53.416,15.099 54.274,13.823 54.274,12.426 L54.274,11.887 C54.274,10.49 53.416,9.214 51.733,9.214 C50.05,9.214 49.192,10.49 49.192,11.887 L49.192,12.426 C49.192,13.823 50.05,15.099 51.733,15.099 Z M50.347,12.426 L50.347,11.887 C50.347,11.04 50.776,10.303 51.733,10.303 C52.69,10.303 53.119,11.04 53.119,11.887 L53.119,12.426 C53.119,13.273 52.69,13.999 51.733,13.999 C50.776,13.999 50.347,13.273 50.347,12.426 Z" id="Shape" fill="#6A7282" fill-rule="nonzero"></path>
            </g>
        </g>
    </g>
</svg>