<svg width="150" height="150" viewBox="0 0 150 150" fill="none" xmlns="http://www.w3.org/2000/svg">
<g clip-path="url(#clip0_1541_207)">
<mask id="mask0_1541_207" style="mask-type:alpha" maskUnits="userSpaceOnUse" x="0" y="0" width="150" height="150">
<rect width="150" height="150" fill="#D9D9D9"/>
</mask>
<g mask="url(#mask0_1541_207)">
<path d="M75 137.5C66.3542 137.5 58.2292 135.859 50.625 132.578C43.0208 129.297 36.4062 124.844 30.7812 119.219C25.1562 113.594 20.7031 106.979 17.4219 99.375C14.1406 91.7708 12.5 83.6458 12.5 75C12.5 61.25 16.5104 48.8802 24.5313 37.8906C32.5521 26.901 43.125 19.375 56.25 15.3125V28.75C46.7708 32.6042 39.1927 38.724 33.5156 47.1094C27.8385 55.4948 25 64.7917 25 75C25 88.9583 29.8438 100.781 39.5313 110.469C49.2188 120.156 61.0417 125 75 125C88.9583 125 100.781 120.156 110.469 110.469C120.156 100.781 125 88.9583 125 75C125 64.7917 122.161 55.4948 116.484 47.1094C110.807 38.724 103.229 32.6042 93.75 28.75V15.3125C106.875 19.375 117.448 26.901 125.469 37.8906C133.49 48.8802 137.5 61.25 137.5 75C137.5 83.6458 135.859 91.7708 132.578 99.375C129.297 106.979 124.844 113.594 119.219 119.219C113.594 124.844 106.979 129.297 99.375 132.578C91.7708 135.859 83.6458 137.5 75 137.5ZM75 100L43.75 68.75L52.5 60L68.75 76.0938V12.5H81.25V76.0938L97.5 60L106.25 68.75L75 100Z" fill="#F3F4F6"/>
</g>
</g>
<defs>
<clipPath id="clip0_1541_207">
<rect width="150" height="150" fill="white"/>
</clipPath>
</defs>
</svg>
