<svg width="150" height="150" viewBox="0 0 150 150" fill="none" xmlns="http://www.w3.org/2000/svg">
<path d="M15.7885 106.395L0 45.2899V44.0847H13.137L23.6225 91.2091L35.6747 44.0847H51.5837L63.5155 91.2091L74.001 44.0847H87.0175V45.2899L71.3495 106.395H56.0431L43.6292 59.2706L31.0949 106.395H15.7885Z" fill="#F3F4F6"/>
<path d="M122.159 107.48C103.719 107.48 94.3185 93.499 94.3185 78.1926V72.287C94.3185 56.9806 103.719 43 122.159 43C140.599 43 150 56.9806 150 72.287V78.1926C150 93.499 140.599 107.48 122.159 107.48ZM106.973 78.1926C106.973 87.4729 111.674 95.4274 122.159 95.4274C132.645 95.4274 137.345 87.4729 137.345 78.1926V72.287C137.345 63.0068 132.645 54.9318 122.159 54.9318C111.674 54.9318 106.973 63.0068 106.973 72.287V78.1926Z" fill="#F3F4F6"/>
</svg>
