<?xml version="1.0" encoding="UTF-8"?>
<svg width="512px" height="512px" viewBox="0 0 512 512" version="1.1" xmlns="http://www.w3.org/2000/svg" xmlns:xlink="http://www.w3.org/1999/xlink">
    <title>favicon</title>
    <defs>
        <path d="M48,0 L464,0 C490.509668,-4.86974701e-15 512,21.490332 512,48 L512,464 C512,490.509668 490.509668,512 464,512 L48,512 C21.490332,512 1.623249e-15,490.509668 0,464 L0,48 C-3.24649801e-15,21.490332 21.490332,3.24649801e-15 48,0 Z" id="path-1"></path>
        <path d="M0,0 L410,0 L410,293 L0,293 L0,0 Z" id="path-2"></path>
    </defs>
    <g id="favicon" stroke="none" fill="none" xlink:href="#path-1" fill-rule="evenodd">
        <use fill="#FAFAF9" xlink:href="#path-1"></use>
        <g id="Logo/Short" transform="translate(51, 109.5)" xlink:href="#path-2" stroke-width="1">
            <g id="Short" transform="translate(9.7619, 6.9428)">
                <path d="M360.210205,279.113857 C340.16512,279.113857 329.946363,263.91655 329.946363,247.276435 L329.946363,240.857018 C329.946363,224.216903 340.16512,209.019596 360.210205,209.019596 C380.257243,209.019596 390.476,224.216903 390.476,240.857018 L390.476,247.276435 C390.476,263.91655 380.257243,279.113857 360.210205,279.113857 Z M343.702832,247.276435 C343.702832,257.364371 348.812211,266.011451 360.210205,266.011451 C371.610152,266.011451 376.719531,257.364371 376.719531,247.276435 L376.719531,240.857018 C376.719531,230.76713 371.610152,221.98924 360.210205,221.98924 C348.812211,221.98924 343.702832,230.76713 343.702832,240.857018 L343.702832,247.276435 Z M302.017567,277.934621 L302.017567,210.198832 L315.774036,210.198832 L315.774036,277.934621 L302.017567,277.934621 Z M299.659092,192.510876 C299.659092,187.139105 303.720042,183.470587 308.962183,183.470587 C314.071561,183.470587 318.263321,187.139105 318.263321,192.510876 C318.263321,197.883234 314.071561,201.81337 308.962183,201.81337 C303.720042,201.81337 299.659092,197.883234 299.659092,192.510876 Z M252.327544,279.113857 C232.411315,279.113857 223.110177,263.91655 223.110177,247.276435 L223.110177,240.857018 C223.110177,224.216903 232.411315,209.019596 252.327544,209.019596 C259.795397,209.019596 265.689632,211.508877 269.883345,215.439013 L269.883345,186.221878 L283.639814,186.221878 L283.639814,277.934621 L269.883345,277.934621 L269.883345,272.69444 C265.689632,276.624576 259.795397,279.113857 252.327544,279.113857 Z M236.866646,247.276435 C236.866646,257.364371 241.976025,266.011451 253.374019,266.011451 C264.773966,266.011451 269.883345,257.364371 269.883345,247.276435 L269.883345,240.857018 C269.883345,230.76713 264.773966,221.98924 253.374019,221.98924 C241.976025,221.98924 236.866646,230.76713 236.866646,240.857018 L236.866646,247.276435 Z M180.237864,278.983048 C161.240231,278.983048 151.807112,266.14226 151.807112,250.814144 L151.807112,210.198832 L165.563972,210.198832 L165.563972,250.421716 C165.563972,260.378842 171.066755,266.011451 180.237864,266.011451 C189.40917,266.011451 194.911953,260.378842 194.911953,250.421716 L194.911953,210.198832 L208.668422,210.198832 L208.668422,250.814144 C208.668422,266.14226 199.236474,278.983048 180.237864,278.983048 Z M124.064963,277.934621 C113.059397,277.934621 106.770586,270.990014 106.770586,259.853652 L106.770586,222.645239 L96.0270293,222.645239 L96.0270293,210.198832 L107.1636,210.198832 L107.1636,193.689917 L120.527446,193.689917 L120.527446,210.198832 L135.856558,210.198832 L135.856558,222.645239 L120.527446,222.645239 L120.527446,258.281988 C120.527446,263.260551 122.361707,265.488214 127.340471,265.488214 L138.739051,265.488214 L138.739051,277.934621 L124.064963,277.934621 Z M59.3543044,279.113857 C42.1909318,279.113857 31.7093845,270.074349 31.3163704,255.400279 L45.2042351,255.400279 C45.4664397,261.688887 49.7899852,266.011451 59.3543044,266.011451 C68.7876188,266.011451 72.7181502,262.737314 72.7181502,258.412797 C72.7181502,254.482661 70.097861,251.99338 63.0228264,250.814144 L52.2792697,248.848099 C40.6186802,246.753198 34.0678596,240.331828 34.0678596,229.457085 C34.0678596,218.059104 43.3699741,209.019596 59.092295,209.019596 C75.9936582,209.019596 85.2959679,218.584294 85.164768,231.030701 L71.407908,231.030701 C71.1458986,225.003711 66.429339,221.596813 59.092295,221.596813 C51.6242462,221.596813 47.8247195,225.134521 47.8247195,229.064657 C47.8247195,232.994793 50.7070181,234.960837 55.2927683,235.747646 L66.5603437,237.711737 C80.3172037,240.201019 86.4750102,247.930482 86.4750102,258.412797 C86.4750102,270.597586 76.6486817,279.113857 59.3543044,279.113857 Z M9.69534337,279.113857 C4.19257986,279.113857 -2.66453526e-14,274.92015 -2.66453526e-14,269.549159 C-2.66453526e-14,264.178168 4.19257986,259.853652 9.69534337,259.853652 C15.0670827,259.853652 19.521711,264.178168 19.521711,269.549159 C19.521711,274.92015 15.0670827,279.113857 9.69534337,279.113857 Z" id=".studio" fill="#6A7282" fill-rule="nonzero"></path>
                <path d="M318.001702,167.851566 C269.998535,167.851566 245.527404,131.45749 245.527404,91.6123914 L245.527404,76.2391747 C245.527404,36.394076 269.998535,2.13162821e-13 318.001702,2.13162821e-13 C366.004869,2.13162821e-13 390.476,36.394076 390.476,76.2391747 L390.476,91.6123914 C390.476,131.45749 366.004869,167.851566 318.001702,167.851566 Z M278.469912,91.6123914 C278.469912,115.770526 290.705477,136.477443 318.001702,136.477443 C345.297927,136.477443 357.533492,115.770526 357.533492,91.6123914 L357.533492,76.2391747 C357.533492,52.0810397 345.297927,31.0603756 318.001702,31.0603756 C290.705477,31.0603756 278.469912,52.0810397 278.469912,76.2391747 L278.469912,91.6123914 Z M41.1001371,165.027842 L-8.52651283e-14,5.96107745 L-8.52651283e-14,2.82366518 L34.1978881,2.82366518 L61.4933319,125.496491 L92.8674928,2.82366518 L134.281377,2.82366518 L165.341791,125.496491 L192.63743,2.82366518 L226.520985,2.82366518 L226.520985,5.96107745 L185.734986,165.027842 L145.889838,165.027842 L113.574435,42.3550754 L80.9452843,165.027842 L41.1001371,165.027842 Z" id="wo" fill="#1E2939" fill-rule="nonzero"></path>
            </g>
        </g>
    </g>
</svg>