<?xml version="1.0" encoding="UTF-8"?>
<svg width="512px" height="512px" viewBox="0 0 512 512" version="1.1" xmlns="http://www.w3.org/2000/svg" xmlns:xlink="http://www.w3.org/1999/xlink">
    <title>favicon</title>
    <defs>
        <path d="M48,0 L464,0 C490.509668,-4.86974701e-15 512,21.490332 512,48 L512,464 C512,490.509668 490.509668,512 464,512 L48,512 C21.490332,512 1.623249e-15,490.509668 0,464 L0,48 C-3.24649801e-15,21.490332 21.490332,3.24649801e-15 48,0 Z" id="path-1"></path>
        <path d="M0,0 L315,0 L315,225 L0,225 L0,0 Z" id="path-2"></path>
    </defs>
    <g id="favicon" stroke="none" fill="none" xlink:href="#path-1" fill-rule="evenodd">
        <use fill="#FAFAF9" xlink:href="#path-1"></use>
        <g id="Logo/Short" transform="translate(98.5, 143.5)" xlink:href="#path-2" stroke-width="1">
            <g id="Short" transform="translate(7.5, 5.2793)">
                <path d="M276.747,214.4415 C261.3465,214.4415 253.4955,202.7655 253.4955,189.981 L253.4955,185.049 C253.4955,172.2645 261.3465,160.5885 276.747,160.5885 C292.149,160.5885 300,172.2645 300,185.049 L300,189.981 C300,202.7655 292.149,214.4415 276.747,214.4415 Z M264.0645,189.981 C264.0645,197.7315 267.99,204.375 276.747,204.375 C285.5055,204.375 289.431,197.7315 289.431,189.981 L289.431,185.049 C289.431,177.297 285.5055,170.553 276.747,170.553 C267.99,170.553 264.0645,177.297 264.0645,185.049 L264.0645,189.981 Z M232.038,213.5355 L232.038,161.4945 L242.607,161.4945 L242.607,213.5355 L232.038,213.5355 Z M230.226,147.90495 C230.226,143.77785 233.346,140.95935 237.3735,140.95935 C241.299,140.95935 244.5195,143.77785 244.5195,147.90495 C244.5195,152.0325 241.299,155.052 237.3735,155.052 C233.346,155.052 230.226,152.0325 230.226,147.90495 Z M193.8615,214.4415 C178.56,214.4415 171.414,202.7655 171.414,189.981 L171.414,185.049 C171.414,172.2645 178.56,160.5885 193.8615,160.5885 C199.599,160.5885 204.1275,162.501 207.3495,165.5205 L207.3495,143.07315 L217.9185,143.07315 L217.9185,213.5355 L207.3495,213.5355 L207.3495,209.5095 C204.1275,212.529 199.599,214.4415 193.8615,214.4415 Z M181.983,189.981 C181.983,197.7315 185.9085,204.375 194.6655,204.375 C203.424,204.375 207.3495,197.7315 207.3495,189.981 L207.3495,185.049 C207.3495,177.297 203.424,170.553 194.6655,170.553 C185.9085,170.553 181.983,177.297 181.983,185.049 L181.983,189.981 Z M138.4755,214.341 C123.87975,214.341 116.63235,204.4755 116.63235,192.699 L116.63235,161.4945 L127.20165,161.4945 L127.20165,192.3975 C127.20165,200.0475 131.4294,204.375 138.4755,204.375 C145.52175,204.375 149.7495,200.0475 149.7495,192.3975 L149.7495,161.4945 L160.3185,161.4945 L160.3185,192.699 C160.3185,204.4755 153.072,214.341 138.4755,214.341 Z M95.31825,213.5355 C86.86275,213.5355 82.0311,208.2 82.0311,199.644 L82.0311,171.057 L73.7769,171.057 L73.7769,161.4945 L82.33305,161.4945 L82.33305,148.8108 L92.6004,148.8108 L92.6004,161.4945 L104.37765,161.4945 L104.37765,171.057 L92.6004,171.057 L92.6004,198.4365 C92.6004,202.2615 94.00965,203.973 97.8348,203.973 L106.59225,203.973 L106.59225,213.5355 L95.31825,213.5355 Z M45.6015,214.4415 C32.415,214.4415 24.3621,207.4965 24.06015,196.2225 L34.7301,196.2225 C34.93155,201.054 38.2533,204.375 45.6015,204.375 C52.84905,204.375 55.86885,201.8595 55.86885,198.537 C55.86885,195.5175 53.8557,193.605 48.42,192.699 L40.1658,191.1885 C31.20705,189.579 26.1741,184.6455 26.1741,176.2905 C26.1741,167.5335 33.32085,160.5885 45.4002,160.5885 C58.3854,160.5885 65.5323,167.937 65.4315,177.4995 L54.8622,177.4995 C54.6609,172.869 51.0372,170.2515 45.4002,170.2515 C39.66255,170.2515 36.7434,172.9695 36.7434,175.989 C36.7434,179.0085 38.95785,180.519 42.48105,181.1235 L51.13785,182.6325 C61.70715,184.545 66.43815,190.4835 66.43815,198.537 C66.43815,207.8985 58.88865,214.4415 45.6015,214.4415 Z M7.448865,214.4415 C3.22113,214.4415 -2.04281037e-14,211.2195 -2.04281037e-14,207.093 C-2.04281037e-14,202.9665 3.22113,199.644 7.448865,199.644 C11.575935,199.644 14.998395,202.9665 14.998395,207.093 C14.998395,211.2195 11.575935,214.4415 7.448865,214.4415 Z" id=".studio" fill="#6A7282" fill-rule="nonzero"></path>
                <path d="M244.3185,128.95935 C207.438,128.95935 188.637,100.998 188.637,70.38525 L188.637,58.5741 C188.637,27.96135 207.438,1.56319402e-13 244.3185,1.56319402e-13 C281.199,1.56319402e-13 300,27.96135 300,58.5741 L300,70.38525 C300,100.998 281.199,128.95935 244.3185,128.95935 Z M213.9465,70.38525 C213.9465,88.9458 223.347,104.8548 244.3185,104.8548 C265.29,104.8548 274.6905,88.9458 274.6905,70.38525 L274.6905,58.5741 C274.6905,40.01355 265.29,23.8635 244.3185,23.8635 C223.347,23.8635 213.9465,40.01355 213.9465,58.5741 L213.9465,70.38525 Z M31.57695,126.7899 L-5.68434189e-14,4.57986 L-5.68434189e-14,2.169405 L26.274,2.169405 L47.2449,96.4182 L71.34945,2.169405 L103.16745,2.169405 L127.03095,96.4182 L148.002,2.169405 L174.0345,2.169405 L174.0345,4.57986 L142.6989,126.7899 L112.08615,126.7899 L87.25845,32.54115 L62.1897,126.7899 L31.57695,126.7899 Z" id="wo" fill="#1E2939" fill-rule="nonzero"></path>
            </g>
        </g>
    </g>
</svg>