<?xml version="1.0" encoding="UTF-8"?>
<svg width="512px" height="512px" viewBox="0 0 512 512" version="1.1" xmlns="http://www.w3.org/2000/svg" xmlns:xlink="http://www.w3.org/1999/xlink">
    <title>favicon</title>
    <defs>
        <path d="M48,0 L464,0 C490.509668,-4.86974701e-15 512,21.490332 512,48 L512,464 C512,490.509668 490.509668,512 464,512 L48,512 C21.490332,512 1.623249e-15,490.509668 0,464 L0,48 C-3.24649801e-15,21.490332 21.490332,3.24649801e-15 48,0 Z" id="path-1"></path>
    </defs>
    <g id="favicon" stroke="none" fill="none" xlink:href="#path-1">
        <use fill="#FAFAF9" fill-rule="evenodd" xlink:href="#path-1"></use>
        <path d="M389.22061,368 C325.119027,368 292.44122,319.431653 292.44122,266.257874 L292.44122,245.742126 C292.44122,192.568347 325.119027,144 389.22061,144 C453.322193,144 486,192.568347 486,245.742126 L486,266.257874 C486,319.431653 453.322193,368 389.22061,368 Z M336.431378,266.257874 C336.431378,298.497206 352.770282,326.130844 389.22061,326.130844 C425.670939,326.130844 442.009842,298.497206 442.009842,266.257874 L442.009842,245.742126 C442.009842,213.502794 425.670939,185.450457 389.22061,185.450457 C352.770282,185.450457 336.431378,213.502794 336.431378,245.742126 L336.431378,266.257874 Z M75.542096,364.231706 L26,151.955132 L26,147.768216 L71.6665443,147.768216 L108.11583,311.476626 L150.011678,147.768216 L205.314186,147.768216 L266.011186,364.231706 L220.815678,364.231706 L177.662932,200.523374 L134.091219,364.231706 L75.542096,364.231706 Z" id="wo" fill="#1E2939" fill-rule="nonzero"></path>
    </g>
</svg>