<svg width="150" height="150" viewBox="0 0 150 150" fill="none" xmlns="http://www.w3.org/2000/svg">
<path d="M27.6308 82.716L15 33.8319V32.8678H25.5096L33.898 70.5673L43.5398 32.8678H56.267L65.8124 70.5673L74.2008 32.8678H84.614V33.8319L72.0796 82.716H59.8345L49.9034 45.0165L39.8759 82.716H27.6308Z" fill="#F3F4F6"/>
<path d="M112.727 83.5837C97.9754 83.5837 90.4548 72.3992 90.4548 60.1541V55.4296C90.4548 43.1845 97.9754 32 112.727 32C127.479 32 135 43.1845 135 55.4296V60.1541C135 72.3992 127.479 83.5837 112.727 83.5837ZM100.579 60.1541C100.579 67.5783 104.339 73.9419 112.727 73.9419C121.116 73.9419 124.876 67.5783 124.876 60.1541V55.4296C124.876 48.0054 121.116 41.5454 112.727 41.5454C104.339 41.5454 100.579 48.0054 100.579 55.4296V60.1541Z" fill="#F3F4F6"/>
<path d="M17.9795 117.777C16.2885 117.777 15 116.488 15 114.837C15 113.186 16.2885 111.858 17.9795 111.858C19.6304 111.858 20.9994 113.186 20.9994 114.837C20.9994 116.488 19.6304 117.777 17.9795 117.777Z" fill="#FFDF20"/>
<path d="M33.2406 117.777C27.966 117.777 24.7449 114.998 24.6241 110.489H28.8921C28.9726 112.421 30.3013 113.75 33.2406 113.75C36.1396 113.75 37.3475 112.744 37.3475 111.415C37.3475 110.207 36.5423 109.442 34.368 109.08L31.0663 108.476C27.4828 107.831 25.4696 105.858 25.4696 102.516C25.4696 99.0135 28.3284 96.2353 33.1601 96.2353C38.3541 96.2353 41.2129 99.1746 41.1726 103H36.9449C36.8644 101.148 35.4149 100.101 33.1601 100.101C30.865 100.101 29.6973 101.188 29.6973 102.396C29.6973 103.604 30.5832 104.208 31.9924 104.449L35.4551 105.053C39.6829 105.818 41.5753 108.194 41.5753 111.415C41.5753 115.159 38.5555 117.777 33.2406 117.777Z" fill="#FFDF20"/>
<path d="M53.1273 117.414C49.7451 117.414 47.8124 115.28 47.8124 111.858V100.423H44.5108V96.5977H47.9332V91.5244H52.0402V96.5977H56.7511V100.423H52.0402V111.375C52.0402 112.905 52.6039 113.589 54.1339 113.589H57.6369V117.414H53.1273Z" fill="#FFDF20"/>
<path d="M70.3902 117.736C64.5519 117.736 61.6529 113.79 61.6529 109.08V96.5977H65.8806V108.959C65.8806 112.019 67.5717 113.75 70.3902 113.75C73.2087 113.75 74.8998 112.019 74.8998 108.959V96.5977H79.1275V109.08C79.1275 113.79 76.2285 117.736 70.3902 117.736Z" fill="#FFDF20"/>
<path d="M92.5443 117.777C86.4242 117.777 83.5654 113.106 83.5654 107.992V106.019C83.5654 100.906 86.4242 96.2353 92.5443 96.2353C94.8394 96.2353 96.6512 97.0003 97.9397 98.2082V89.2293H102.167V117.414H97.9397V115.804C96.6512 117.012 94.8394 117.777 92.5443 117.777ZM87.7931 107.992C87.7931 111.093 89.3634 113.75 92.8664 113.75C96.3694 113.75 97.9397 111.093 97.9397 107.992V106.019C97.9397 102.919 96.3694 100.221 92.8664 100.221C89.3634 100.221 87.7931 102.919 87.7931 106.019V107.992Z" fill="#FFDF20"/>
<path d="M107.815 117.414V96.5977H112.043V117.414H107.815ZM107.09 91.162C107.09 89.5112 108.339 88.3838 109.949 88.3838C111.519 88.3838 112.808 89.5112 112.808 91.162C112.808 92.8128 111.519 94.0208 109.949 94.0208C108.339 94.0208 107.09 92.8128 107.09 91.162Z" fill="#FFDF20"/>
<path d="M125.699 117.777C119.539 117.777 116.398 113.106 116.398 107.992V106.019C116.398 100.906 119.539 96.2353 125.699 96.2353C131.859 96.2353 135 100.906 135 106.019V107.992C135 113.106 131.859 117.777 125.699 117.777ZM120.626 107.992C120.626 111.093 122.196 113.75 125.699 113.75C129.202 113.75 130.772 111.093 130.772 107.992V106.019C130.772 102.919 129.202 100.221 125.699 100.221C122.196 100.221 120.626 102.919 120.626 106.019V107.992Z" fill="#FFDF20"/>
</svg>
