<?xml version="1.0" encoding="UTF-8"?>
<svg width="16px" height="9px" viewBox="0 0 16 9" version="1.1" xmlns="http://www.w3.org/2000/svg" xmlns:xlink="http://www.w3.org/1999/xlink">
    <title>logomark-small</title>
    <defs>
        <path d="M0,0 L16,0 L16,8 L0,8 L0,0 Z" id="path-1"></path>
    </defs>
    <g id="logomark-small" stroke="none" fill="none" transform="translate(0, 0.5)" xlink:href="#path-1" fill-rule="nonzero">
        <path d="M12.4285574,0 C14.7940933,0 16,1.7345838 16,3.63364735 L16,4.36635265 C16,6.2654162 14.7940933,8 12.4285574,8 C10.0630215,8 8.85711484,6.2654162 8.85711484,4.36635265 L8.85711484,3.63364735 C8.85711484,1.7345838 10.0630215,0 12.4285574,0 Z M1.68522907,0.134579152 L3.03031433,5.98130806 L4.57639366,0.134579152 L6.61721799,0.134579152 L8.85711484,7.86541806 L7.1892684,7.86541806 L5.59680583,2.01869194 L3.98888217,7.86541806 L1.82824826,7.86541806 L0,0.284111854 L0,0.134579152 L1.68522907,0.134579152 Z M12.4285574,1.48037347 C11.0834337,1.48037347 10.4804803,2.48224266 10.4804803,3.63364735 L10.4804803,4.36635265 C10.4804803,5.51775734 11.0834337,6.50467298 12.4285574,6.50467298 C13.7736812,6.50467298 14.3766345,5.51775734 14.3766345,4.36635265 L14.3766345,3.63364735 C14.3766345,2.48224266 13.7736812,1.48037347 12.4285574,1.48037347 Z" id="wo" fill="#1E2939"></path>
    </g>
</svg>