<?xml version="1.0" encoding="UTF-8"?>
<svg width="1200px" height="600px" viewBox="0 0 1200 600" version="1.1" xmlns="http://www.w3.org/2000/svg" xmlns:xlink="http://www.w3.org/1999/xlink">
    <title>site-default</title>
    <defs>
        <path d="M0,0 L1200,0 L1200,600 L0,600 L0,0 Z" id="path-1"></path>
        <path d="M0,0 L1040,0 L1040,229 L0,229 L0,0 Z" id="path-2"></path>
        <path d="M0,0 L490,0 L490,38 L0,38 L0,0 Z" id="path-3"></path>
        <path d="M8,0 L106,0 C110.418278,-8.11624501e-16 114,3.581722 114,8 L114,30 C114,34.418278 110.418278,38 106,38 L8,38 C3.581722,38 2.705415e-16,34.418278 0,30 L0,8 C-5.41083001e-16,3.581722 3.581722,5.41083001e-16 8,0 Z" id="path-4"></path>
        <path d="M8,0 L98,0 C102.418278,-8.11624501e-16 106,3.581722 106,8 L106,30 C106,34.418278 102.418278,38 98,38 L8,38 C3.581722,38 2.705415e-16,34.418278 0,30 L0,8 C-5.41083001e-16,3.581722 3.581722,5.41083001e-16 8,0 Z" id="path-5"></path>
        <path d="M8,0 L78,0 C82.418278,-8.11624501e-16 86,3.581722 86,8 L86,30 C86,34.418278 82.418278,38 78,38 L8,38 C3.581722,38 2.705415e-16,34.418278 0,30 L0,8 C-5.41083001e-16,3.581722 3.581722,5.41083001e-16 8,0 Z" id="path-6"></path>
        <path d="M8,0 L104,0 C108.418278,-8.11624501e-16 112,3.581722 112,8 L112,30 C112,34.418278 108.418278,38 104,38 L8,38 C3.581722,38 2.705415e-16,34.418278 0,30 L0,8 C-5.41083001e-16,3.581722 3.581722,5.41083001e-16 8,0 Z" id="path-7"></path>
        <path d="M0,0 L1040,0 L1040,91 L0,91 L0,0 Z" id="path-8"></path>
        <path d="M16,0 L36,0 C44.836556,-1.623249e-15 52,7.163444 52,16 L52,36 C52,44.836556 44.836556,52 36,52 L16,52 C7.163444,52 5.41083001e-16,44.836556 0,36 L0,16 C-1.082166e-15,7.163444 7.163444,1.082166e-15 16,0 Z" id="path-9"></path>
    </defs>
    <g id="site-default" stroke="none" fill="none" xlink:href="#path-1">
        <use fill="#FAFAF9" fill-rule="evenodd" xlink:href="#path-1"></use>
        <g id="Stack-5" transform="translate(80, 291)" xlink:href="#path-2">
            <g id="Stack-4" transform="translate(0, 191)" xlink:href="#path-3">
                <g id="Stack-3" transform="translate(376, 0)" xlink:href="#path-4">
                    <use fill="#EFF6FF" fill-rule="evenodd" xlink:href="#path-4"></use>
                    <text id="Systems" font-family="Montserrat-SemiBold, Montserrat" font-size="18" font-weight="500" fill="#2B7FFF">
                        <tspan x="18" y="25">Systems</tspan>
                    </text>
                </g>
                <g id="Stack-3" transform="translate(246, 0)" xlink:href="#path-5">
                    <use fill="#FDF2F8" fill-rule="evenodd" xlink:href="#path-5"></use>
                    <text id="Plugins" font-family="Montserrat-SemiBold, Montserrat" font-size="18" font-weight="500" fill="#F6339A">
                        <tspan x="18" y="25">Plugins</tspan>
                    </text>
                </g>
                <g id="Stack-3" transform="translate(136, 0)" xlink:href="#path-6">
                    <use fill="#FFF7ED" fill-rule="evenodd" xlink:href="#path-6"></use>
                    <text id="Icons" font-family="Montserrat-SemiBold, Montserrat" font-size="18" font-weight="500" fill="#FF6900">
                        <tspan x="18" y="25">Icons</tspan>
                    </text>
                </g>
                <g id="Stack-3" xlink:href="#path-7">
                    <use fill="#F5F3FF" fill-rule="evenodd" xlink:href="#path-7"></use>
                    <text id="Palettes" font-family="Montserrat-SemiBold, Montserrat" font-size="18" font-weight="500" fill="#8E51FF">
                        <tspan x="18" y="25">Palettes</tspan>
                    </text>
                </g>
            </g>
            <g id="Stack" transform="translate(0, 76)" xlink:href="#path-8">
                <text id="A-collection-of-mode" font-family="Montserrat-Medium, Montserrat" font-size="24" font-weight="400" fill="#6A7282">
                    <tspan x="0" y="85">A collection of modern resources for Sketch.</tspan>
                </text>
                <text id="Sketch-Today" font-family="Montserrat-Bold, Montserrat" font-size="48" font-weight="bold" letter-spacing="-0.75" fill="#1E2939">
                    <tspan x="0" y="46">Sketch Today</tspan>
                </text>
            </g>
            <g id="Stack-2" xlink:href="#path-9">
                <use fill="#1E2939" fill-rule="evenodd" xlink:href="#path-9"></use>
                <g id="Graphic" transform="translate(8, 8)" fill="#FAFAF9" fill-rule="nonzero">
                    <path d="M18,33 L4.5,19.65 L12,10.5 L24,10.5 L31.5,19.65 L18,33 Z M6.8625,10.5 L3.675,7.3125 L5.8125,5.2125 L9,8.4 L6.8625,10.5 Z M16.5,7.5 L16.5,3 L19.5,3 L19.5,7.5 L16.5,7.5 Z M29.0625,10.5 L26.925,8.3625 L30.1125,5.175 L32.25,7.3125 L29.0625,10.5 Z M18,28.8 L25.875,21 L10.125,21 L18,28.8 Z M13.425,13.5 L9.7125,18 L26.2875,18 L22.575,13.5 L13.425,13.5 Z" id="Shape"></path>
                </g>
            </g>
        </g>
    </g>
</svg>