<?xml version="1.0" encoding="UTF-8"?>
<svg width="150px" height="150px" viewBox="0 0 150 150" version="1.1" xmlns="http://www.w3.org/2000/svg" xmlns:xlink="http://www.w3.org/1999/xlink">
    <title>favicon-dark</title>
    <defs>
        <path d="M0,0 L150,0 L150,150 L0,150 L0,0 Z" id="path-1"></path>
    </defs>
    <g id="favicon-dark" stroke="none" fill="none" xlink:href="#path-1" fill-rule="nonzero">
        <g id="diamond_shine_24dp_E3E3E3_FILL0_wght400_GRAD0_opsz24" fill="#F9FAFB">
            <path d="M75,137.5 L18.75,81.875 L50,43.75 L100,43.75 L131.25,81.875 L75,137.5 Z M28.59375,43.75 L15.3125,30.46875 L24.21875,21.71875 L37.5,35 L28.59375,43.75 Z M68.75,31.25 L68.75,12.5 L81.25,12.5 L81.25,31.25 L68.75,31.25 Z M121.09375,43.75 L112.1875,34.84375 L125.46875,21.5625 L134.375,30.46875 L121.09375,43.75 Z M75,120 L107.8125,87.5 L42.1875,87.5 L75,120 Z M55.9375,56.25 L40.46875,75 L109.53125,75 L94.0625,56.25 L55.9375,56.25 Z" id="Shape"></path>
        </g>
    </g>
</svg>