<svg width="150" height="150" viewBox="0 0 150 150" fill="none" xmlns="http://www.w3.org/2000/svg">
<g clip-path="url(#clip0_195_4)">
<path d="M107.813 107.813C101.323 107.813 94.9789 105.888 89.5829 102.283C84.1869 98.6771 79.9812 93.5525 77.4977 87.5568C75.0142 81.5611 74.3644 74.9636 75.6305 68.5986C76.8966 62.2336 80.0217 56.387 84.6106 51.7981C89.1995 47.2092 95.0461 44.0841 101.411 42.818C107.776 41.5519 114.374 42.2017 120.369 44.6852C126.365 47.1687 131.49 51.3744 135.095 56.7704C138.701 62.1664 140.625 68.5103 140.625 75C140.613 83.6986 137.152 92.0374 131.001 98.1883C124.85 104.339 116.511 107.8 107.813 107.813ZM107.813 51.5625C103.177 51.5625 98.6456 52.9371 94.7913 55.5124C90.9371 58.0878 87.933 61.7482 86.1591 66.0309C84.3852 70.3135 83.921 75.026 84.8254 79.5724C85.7297 84.1189 87.9619 88.295 91.2397 91.5728C94.5175 94.8506 98.6937 97.0828 103.24 97.9872C107.787 98.8915 112.499 98.4274 116.782 96.6534C121.064 94.8795 124.725 91.8755 127.3 88.0212C129.875 84.1669 131.25 79.6355 131.25 75C131.243 68.7863 128.771 62.8292 124.377 58.4354C119.983 54.0416 114.026 51.57 107.813 51.5625Z" fill="#F3F4F6"/>
<path d="M42.1875 107.812C60.3093 107.812 75 93.1218 75 75C75 56.8782 60.3093 42.1875 42.1875 42.1875C24.0657 42.1875 9.375 56.8782 9.375 75C9.375 93.1218 24.0657 107.812 42.1875 107.812Z" fill="#F3F4F6"/>
</g>
<defs>
<clipPath id="clip0_195_4">
<rect width="150" height="150" fill="white"/>
</clipPath>
</defs>
</svg>
