<?xml version="1.0" encoding="UTF-8"?>
<svg width="512px" height="512px" viewBox="0 0 512 512" version="1.1" xmlns="http://www.w3.org/2000/svg" xmlns:xlink="http://www.w3.org/1999/xlink">
    <title>favicon-dark@1x</title>
    <g id="favicon-dark" stroke="none" fill="none" fill-rule="nonzero">
        <g id="radio-button-partial" transform="translate(16, 16)" fill="#F9FAFB">
            <path d="M240,340.000055 L240,140 C212.333333,140 188.753333,149.753333 169.26,169.26 C149.766667,188.766667 140.013333,212.346667 139.999986,240 C139.986667,267.653333 149.74,291.24 169.26,310.76 C188.78,330.28 212.36,340.026667 240,340.000055 M240,440.000101 C212.333333,440.000101 186.333333,434.746667 162,424.24 C137.666667,413.733333 116.5,399.486667 98.5,381.5 C80.5,363.513333 66.2533333,342.346667 55.76,318 C45.2666667,293.653333 40.0133333,267.653333 39.9999747,240 C39.9866667,212.346667 45.24,186.346667 55.76,162 C66.28,137.653333 80.5266667,116.486667 98.5,98.5 C116.473333,80.5133333 137.64,66.2666667 162,55.76 C186.36,45.2533333 212.36,40 240,40 C267.64,40 293.64,45.2533333 318,55.76 C342.36,66.2666667 363.526667,80.5133333 381.5,98.5 C399.473333,116.486667 413.726667,137.653333 424.26,162 C434.793333,186.346667 440.04,212.346667 440.000227,240 C439.96,267.653333 434.706667,293.653333 424.24,318 C413.773333,342.346667 399.526667,363.513333 381.5,381.5 C363.473333,399.486667 342.306667,413.74 318,424.26 C293.693333,434.78 267.693333,440.026667 240,440.000101 M240,400 C284.666667,400 322.5,384.5 353.5,353.5 C384.5,322.5 400,284.666667 400,240 C400,195.333333 384.5,157.5 353.5,126.5 C322.5,95.5 284.666667,80 240,80 C195.333333,80 157.5,95.5 126.5,126.5 C95.5,157.5 80,195.333333 80,240 C80,284.666667 95.5,322.5 126.5,353.5 C157.5,384.5 195.333333,400 240,400" id="Shape"></path>
        </g>
    </g>
</svg>