<?xml version="1.0" encoding="UTF-8"?>
<svg width="54px" height="10px" viewBox="0 0 54 10" version="1.1" xmlns="http://www.w3.org/2000/svg" xmlns:xlink="http://www.w3.org/1999/xlink">
    <title>logo-small-horizontal</title>
    <defs>
        <path d="M0,0 L53.874,0 L53.874,8.56 L0,8.56 L0,0 Z" id="path-1"></path>
    </defs>
    <g id="logo-small-horizontal" stroke="none" fill="none" transform="translate(0, 0.72)" xlink:href="#path-1" fill-rule="evenodd" stroke-width="1">
        <g id="wo.studio" transform="translate(0, -0)">
            <g id="Tld" transform="translate(23.723, 0.485)" fill="#6A7282" fill-rule="nonzero">
                <path d="M2.354,8.03 C3.806,8.03 4.631,7.315 4.631,6.292 C4.631,5.412 4.114,4.763 2.959,4.554 L2.013,4.389 C1.628,4.323 1.386,4.158 1.386,3.828 C1.386,3.498 1.705,3.201 2.332,3.201 C2.948,3.201 3.344,3.487 3.366,3.993 L4.521,3.993 C4.532,2.948 3.751,2.145 2.332,2.145 C1.012,2.145 0.231,2.904 0.231,3.861 C0.231,4.774 0.781,5.313 1.76,5.489 L2.662,5.654 C3.256,5.753 3.476,5.962 3.476,6.292 C3.476,6.655 3.146,6.93 2.354,6.93 C1.551,6.93 1.188,6.567 1.166,6.039 L0,6.039 C0.033,7.271 0.913,8.03 2.354,8.03 Z" id="Path"></path>
                <path d="M7.788,7.931 L9.02,7.931 L9.02,6.886 L8.063,6.886 C7.645,6.886 7.491,6.699 7.491,6.281 L7.491,3.289 L8.778,3.289 L8.778,2.244 L7.491,2.244 L7.491,0.858 L6.369,0.858 L6.369,2.244 L5.434,2.244 L5.434,3.289 L6.336,3.289 L6.336,6.413 C6.336,7.348 6.864,7.931 7.788,7.931 Z" id="Path"></path>
                <path d="M12.507,8.019 C14.102,8.019 14.894,6.941 14.894,5.654 L14.894,2.244 L13.739,2.244 L13.739,5.621 C13.739,6.457 13.277,6.93 12.507,6.93 C11.737,6.93 11.275,6.457 11.275,5.621 L11.275,2.244 L10.12,2.244 L10.12,5.654 C10.12,6.941 10.912,8.019 12.507,8.019 Z" id="Path"></path>
                <path d="M18.557,8.03 C19.184,8.03 19.679,7.821 20.031,7.491 L20.031,7.931 L21.186,7.931 L21.186,0.231 L20.031,0.231 L20.031,2.684 C19.679,2.354 19.184,2.145 18.557,2.145 C16.885,2.145 16.104,3.421 16.104,4.818 L16.104,5.357 C16.104,6.754 16.885,8.03 18.557,8.03 Z M17.259,5.357 L17.259,4.818 C17.259,3.971 17.688,3.234 18.645,3.234 C19.602,3.234 20.031,3.971 20.031,4.818 L20.031,5.357 C20.031,6.204 19.602,6.93 18.645,6.93 C17.688,6.93 17.259,6.204 17.259,5.357 Z" id="Shape"></path>
                <path d="M22.726,7.931 L23.881,7.931 L23.881,2.244 L22.726,2.244 L22.726,7.931 Z M22.528,0.759 C22.528,1.21 22.869,1.54 23.309,1.54 C23.738,1.54 24.09,1.21 24.09,0.759 C24.09,0.308 23.738,0 23.309,0 C22.869,0 22.528,0.308 22.528,0.759 Z" id="Shape"></path>
                <path d="M27.61,8.03 C29.293,8.03 30.151,6.754 30.151,5.357 L30.151,4.818 C30.151,3.421 29.293,2.145 27.61,2.145 C25.927,2.145 25.069,3.421 25.069,4.818 L25.069,5.357 C25.069,6.754 25.927,8.03 27.61,8.03 Z M26.224,5.357 L26.224,4.818 C26.224,3.971 26.653,3.234 27.61,3.234 C28.567,3.234 28.996,3.971 28.996,4.818 L28.996,5.357 C28.996,6.204 28.567,6.93 27.61,6.93 C26.653,6.93 26.224,6.204 26.224,5.357 Z" id="Shape"></path>
            </g>
            <g id="Address" fill-rule="nonzero">
                <polygon id="Path" fill="#292524" points="2.096 8.416 4.128 8.416 5.792 2.16 7.44 8.416 9.472 8.416 11.552 0.304 11.552 0.144 9.824 0.144 8.432 6.4 6.848 0.144 4.736 0.144 3.136 6.4 1.744 0.144 0 0.144 0 0.304"></polygon>
                <path d="M16.208,8.56 C18.656,8.56 19.904,6.704 19.904,4.672 L19.904,3.888 C19.904,1.856 18.656,0 16.208,0 C13.76,0 12.512,1.856 12.512,3.888 L12.512,4.672 C12.512,6.704 13.76,8.56 16.208,8.56 Z M14.192,4.672 L14.192,3.888 C14.192,2.656 14.816,1.584 16.208,1.584 C17.6,1.584 18.224,2.656 18.224,3.888 L18.224,4.672 C18.224,5.904 17.6,6.96 16.208,6.96 C14.816,6.96 14.192,5.904 14.192,4.672 Z" id="Shape" fill="#292524"></path>
                <path d="M21.908,8.515 C22.359,8.515 22.733,8.163 22.733,7.712 C22.733,7.261 22.359,6.898 21.908,6.898 C21.446,6.898 21.094,7.261 21.094,7.712 C21.094,8.163 21.446,8.515 21.908,8.515 Z" id="Path" fill="#6A7282"></path>
            </g>
        </g>
    </g>
</svg>