<svg width="526" height="796" viewBox="0 0 526 796" fill="none" xmlns="http://www.w3.org/2000/svg">
<g opacity="0.4">
<path d="M17.1057 -74.2434C-37.6923 -63.6332 -74.8222 -53.3742 -121.316 -30.0461C-225.802 19.2232 -323.709 149.837 -341.503 266.626C-346.551 292.985 -349.111 319.958 -349.137 347C-349.303 409.164 -335.586 471.414 -309.639 527.034C-307.736 531.122 -306.761 533.647 -305.858 535.49C-297.588 552.931 -280.673 580.607 -269.293 595.998C-246.835 629.604 -195.881 678.584 -164.811 698.667C-151.993 707.677 -138.15 715.86 -133.109 719.33C-128.126 722.176 -125.113 723.186 -123.787 723.867C-123.772 723.875 -123.757 723.884 -123.743 723.892C-119.489 726.121 -108.749 731.88 -106.3 732.973C-105.934 733.136 -108.015 731.764 -102.171 734.619C-101.646 734.866 -102.252 734.896 -97.2519 737.151C-95.9738 737.824 -78.9396 744.577 -73.9837 746.302C-57.8349 752.868 -17.7622 764.528 2.90067 767.594C6.04492 768.14 7.88449 768.294 11.2225 768.812C12.9456 769.079 15.485 769.612 16.0159 769.685C18.3253 770.045 28.5873 770.573 24.7606 771.555C35.4387 772.703 32.3552 771.82 32.6248 771.555C44.1349 772.674 49.72 773.605 52.7993 773.074C60.8498 773.535 68.8764 773.772 77 773.785C126.108 773.882 175.086 765.545 221.285 749.02C221.261 748.904 221.238 748.787 221.214 748.671C237.202 743.33 242.136 740.218 251.218 736.976C256.57 734.417 261.843 731.758 267.086 728.976C404.615 662.223 498.168 516.561 503.074 365.737C503.313 359.409 503.674 357.848 503.73 347.319C503.73 347.213 503.73 347.107 503.73 347C503.756 335.388 502.855 319.303 501.336 304.321C500.089 290.976 497.364 271.451 494.19 256.885C493.489 253.587 492.784 251.252 492.701 250.883C492.204 248.712 492.422 248.546 491.925 246.445C491.326 243.928 490.393 240.972 489.639 238.065C486.868 227.227 483.082 215.706 482.63 214.351C480.523 207.876 480.218 206.397 480.044 205.864C477.544 198.726 478.272 201.484 477.644 199.704C474.286 190.494 472.3 183.856 466.342 171.81C466.679 172.058 467.016 172.307 467.352 172.557C463.209 163.164 465.519 169.565 464.559 167.699C464.297 166.89 454.519 147.079 453.598 145.649C450.819 140.418 450.946 140.155 450.707 139.703C450.145 138.572 442.456 125.804 438.498 119.239C433.865 111.448 440.07 120.141 438.947 118.19C438.779 117.845 433.557 109.912 432.968 108.773C432.349 107.491 436.882 114.345 436.864 114.208C436.905 114.077 429.604 102.529 431.268 104.559C432.761 106.101 442.586 121.841 444.63 125.204C444.983 125.749 444.625 124.536 444.932 125.022C446.618 126.701 466.723 164.519 467.02 166.536C465.951 164.577 464.869 162.63 463.771 160.691C465.043 163.36 466.286 166.04 467.503 168.737C465.646 164.959 463.742 161.225 461.772 157.497C463.568 163.57 472.285 180.223 473.068 180.765C473.477 180.974 469.567 170.06 474.185 179.792C473.616 178.259 473.035 176.722 472.448 175.193C470.994 172.144 469.506 169.117 467.984 166.112C468.86 168.177 469.72 170.25 470.564 172.33C470.152 171.609 469.738 170.89 469.323 170.172C466.613 164.495 463.783 158.887 460.824 153.331C459.416 150.422 459.938 150.909 458.959 148.913C446.294 124.247 454.35 140.436 445.313 124.719C444.085 122.435 442.834 120.155 441.563 117.889C441.58 118.959 437.641 111.934 431.938 104.05C432.742 104.908 433.543 105.771 434.339 106.636C426.615 94.8286 409.481 71.896 413.499 78.5666C411.548 75.9911 409.571 73.4394 407.56 70.9049C405.686 68.9131 403.795 66.9404 401.887 64.9872C399.429 62.1308 396.936 59.3076 394.404 56.5158C394.456 56.4447 394.508 56.3736 394.56 56.3026C396.592 58.52 398.599 60.7569 400.584 63.0157C399.293 61.1464 397.986 59.2857 396.663 57.4339C395.137 55.8163 393.599 54.21 392.05 52.6164C398.2 59.6241 389.57 50.8674 387.237 48.9979C381.71 43.4392 378.428 39.634 376.555 37.7836C375.711 36.8679 364.506 27.5383 369.284 30.7794C363.706 25.7662 358.004 20.9023 352.176 16.1877C349.966 14.2603 347.741 12.3582 345.493 10.4763C350.729 14.1264 336.581 2.25119 347.338 10.5865C355.314 16.8876 356.931 18.8665 360.577 22.015C363.846 24.8773 365.731 26.2159 369.227 29.4085C392.603 51.0069 409.764 70.6686 427.424 95.179C430.893 100.034 434.068 104.455 436.276 107.799C438.759 111.582 435.37 107.027 438.599 111.802C441.964 116.835 442.857 117.825 443.714 119.177C444.244 120.019 445.707 122.834 447.195 125.319C453.419 135.492 461.71 150.901 462.427 152.44C463.594 154.02 477.297 184.87 477.556 186.496C477.846 187.304 476.413 185.953 479.969 192.548C480.817 194.709 481.648 196.882 482.46 199.057C482.168 198.765 481.875 198.472 481.581 198.179C486.821 210.869 484.951 206.528 489.043 219.14C498.975 249.251 507.12 295.717 508.034 330.381C508.284 337.107 508.503 340.219 508.572 347C508.579 348.008 508.581 349.095 508.574 350.286C508.696 358.861 506.74 380.981 507.867 376.221C505.721 395.036 506.388 398.228 504.368 407.517C504.325 408.668 504.277 409.819 504.225 410.968C502.161 421.088 502.06 424.302 499.891 435.325C498.901 440.085 499.6 434.507 498.038 444.198C497.576 446.011 497.102 447.82 496.617 449.623C496.594 449.171 496.571 448.719 496.547 448.267C494.072 458.807 493.705 459.479 494.519 458.4C493.081 463.462 491.553 468.483 489.938 473.462C489.9 474.131 489.859 474.799 489.818 475.468C492.935 474.007 512.389 379.047 508.982 347C508.962 343.415 508.902 340.672 508.857 338.987C509.327 319.484 504.499 280.588 501.188 265.183C500.018 259.032 499.833 256.185 497.8 247.253C495.777 238.346 492.334 227.277 490.904 222.641C487.713 206.522 456.449 136.064 477.756 183.938C477.35 182.477 476.937 181.019 476.515 179.563C467.643 160.667 471.085 167.442 463.53 151.859C460.361 145.297 451.544 130.395 452.666 130.863C459.58 142.517 465.891 155.458 470.795 166.136C471.318 167.168 477.322 179.78 479.82 186.494C482.079 192.559 479.887 188.63 485.505 201.555C488.208 211.662 490.669 217.24 491.563 219.845C493.079 224.364 492.833 224.983 494.089 229.582C495.443 234.598 496.589 238.008 496.771 238.697C498.982 245.46 505.99 281.968 505.704 283.733C505.417 282.271 505.123 280.816 504.818 279.345C506.148 288.874 506.217 286.828 506.621 289.33C506.868 291.199 507.103 293.072 507.326 294.949C507.151 294.215 506.973 293.483 506.794 292.752C508.113 304.056 507.583 295.404 509.034 311.45C509.887 321.695 509.896 332.297 509.945 333.285C509.961 333.579 510.085 330.346 510.243 334.522C510.371 338.046 510.459 342.899 510.419 347C510.386 350.945 510.25 354.163 510.089 354.817C510.067 358.212 510.362 357.929 510.36 358.38C510.648 360.356 508.516 394.139 507.424 400.195C505.456 416.849 502.04 435.38 497.632 453.042C497.179 454.856 497.288 453.652 496.829 455.468C496.156 458.426 492.201 473.396 491.47 475.58C489.879 481.159 484.781 495.448 483.973 497.7C483.866 498.025 485.846 493.411 483.887 498.936C481.672 505.053 482.581 501.651 482.456 501.982C477.599 514.264 474.431 521.99 470.686 530.195C469.471 532.85 466.903 537.601 465.115 541.322C464.91 541.75 465.548 541.017 465.349 541.439C462.667 547.079 459.515 552.002 458.198 554.352C454.954 560.105 456.972 557.112 456.811 557.416C454.684 561.271 451.646 566.352 448.191 572.066C432.643 597.489 418.089 617.173 396.749 640.605C394.058 643.539 390.627 646.796 390.204 647.232C388.899 648.586 389.487 648.406 385.665 652.28C377.583 660.421 369.818 667.705 361.238 675.146C359.508 676.642 358.6 677.081 357.268 678.204C352.888 682.072 337.568 694.87 336.747 694.329C327.89 701.849 321.135 705.711 313.346 710.817C294.968 723.137 264.333 739.494 243.815 747.637C239.528 749.397 237.422 749.996 235.017 750.929C230.764 752.814 205.777 761.485 204.375 761.679C201.744 762.375 203.111 761.163 189.858 765.664C181.928 767.824 182.791 767.153 181.142 767.553C168.33 770.594 155.836 773.703 158.056 772.499C142.996 775.543 133.164 777.141 126.841 777.147C126.962 777.489 119.794 778.565 111.118 779.098C119.924 777.685 118.854 777.758 140.17 774.966C140.504 774.918 139.904 775.268 140.238 775.221C143.254 774.805 149.624 773.669 154.769 772.739C159.921 771.803 157.094 772.504 159.153 772.111C161.034 771.743 160.925 771.516 163.639 770.965C172.498 769.158 180.225 767.204 185.171 765.924C188.308 765.116 191.86 764.377 194.275 763.697C203.632 761.181 223.105 754.626 234.577 750.033C236.969 749.093 236.065 749.738 241.279 747.638C241.889 747.386 243.998 746.263 248.509 744.26C253.012 742.254 256.536 740.784 259.391 739.428C261.773 738.285 260.683 738.57 265.556 736.206C269.99 734.909 314.407 709.507 316.353 707.363C319.703 705.191 321.452 704.37 323.438 702.949C323.787 702.697 324.209 702.031 325.414 701.158C345.776 687.415 386.772 651.513 404.503 629.665C442.644 585.188 469.774 537.108 488.193 480.986C488.469 479.967 488.741 478.946 489.01 477.924C487.197 483.625 485.27 489.276 483.23 494.872C483.081 494.858 482.933 494.844 482.784 494.83C479.97 502.397 480.618 501.501 480.904 501.366C479.754 504.128 478.577 506.874 477.372 509.604C476.961 512.201 468.749 530.392 464.045 539.521C461.075 545.513 457.497 552.591 455.766 555.673C452.116 562.17 451.901 561.817 451.615 562.328C451.128 563.193 446.124 572.293 442.059 578.603C436.026 587.898 435.048 588.679 426.538 601.233C414.914 616.806 401.187 633.43 386.582 648.452C389.073 645.313 376.223 658.991 369.906 664.64C332.275 700.075 277.375 733.872 228.114 751.479C221.807 753.811 216.942 755.197 213.392 756.39C211.468 757.033 210.723 757.603 208.021 758.423C207.548 758.559 207.121 758.422 202.114 759.903C189.709 763.914 158.053 771.493 149.806 772.027C125.794 776.158 101.421 778.241 77 778.286C56.713 778.323 36.5974 776.972 16.5274 774.198C15.4367 773.926 14.3484 773.651 13.2623 773.372C4.70923 773.014 -28.063 766.122 -43.6897 761.215C-71.3888 753.483 -105.393 739.326 -127.48 727.163C-132.301 724.565 -136.133 722.211 -140.605 719.602C-142.529 718.479 -145.021 717.249 -147.003 716.044C-169.411 702.701 -197.533 681.158 -216.614 663.12C-260.153 622.447 -293.569 575.83 -318.057 520.647C-342.15 466.062 -354.527 406.501 -354.512 347C-355.861 203.121 -278.899 62.5185 -158.603 -14.7457C-156.334 -16.2192 -156.31 -15.9313 -154.543 -17.0586C-144.213 -23.8852 -120.179 -37.5329 -107.424 -43.3067C-97.3988 -48.1557 -80.8874 -54.4594 -77.4243 -56.1285C-114.599 -42.5733 -151.629 -22.1297 -184.513 2.75933C-186.853 4.52876 -187.283 4.56808 -187.573 4.78455C-192.884 8.84083 -189.398 6.45287 -196.909 12.5596C-199.58 14.3993 -222.364 33.8194 -219.123 32.0775C-225.079 36.22 -259.421 73.3476 -264.71 81.6243C-266.5 83.983 -265.037 82.4649 -265.388 82.9363C-266.905 84.9861 -267.85 85.7149 -269.228 87.534C-272.956 92.3332 -281.598 105.166 -283.168 107.64C-287.01 113.19 -297.837 130.322 -301.989 138.239C-305.861 145.449 -304.838 144.248 -308.06 150.536C-310.538 155.524 -308.14 149.936 -313.648 161.097C-316.471 166.574 -324.788 186.491 -326.538 191.43C-328.425 196.328 -330.625 201.72 -332.926 208.571C-336.389 218.424 -342.436 240.255 -344.575 250.615C-344.712 251.233 -344.805 252.791 -345.142 254.314C-345.836 257.47 -345.938 256.456 -346.469 258.842C-347.476 261.096 -353.869 302.922 -353.906 310.108C-354.322 315.029 -354.353 318.457 -354.517 321.193C-354.643 323.337 -354.916 323.569 -355.027 325.743C-355.061 326.417 -355.109 332.157 -355.225 337.921C-355.264 339.702 -355.346 343.114 -355.377 347C-355.47 355.004 -355.195 364.863 -355.112 366.463C-355.039 368.018 -354.948 366.289 -354.712 370.901C-354.485 375.11 -354.527 377.88 -354.35 380.269C-353.939 385.814 -353.15 391.936 -352.458 397.818C-350.361 414.628 -350.534 413.749 -350.441 414.775C-350.026 417.574 -349.565 418.644 -349.406 419.556C-348.758 423.424 -346.927 432.779 -346.173 436.19C-345.26 440.439 -345.116 442.292 -344.067 446.779C-343.28 450.12 -341.395 456.786 -339.254 464.334C-334.508 481.313 -327.425 501.161 -320.564 517.058C-318.519 521.813 -318.392 522.624 -317.755 524.072C-314.369 531.664 -312.06 535.702 -311.019 537.84C-303.794 553.128 -288.764 579.372 -279.676 592.199C-276.211 597.591 -259.344 619.962 -248.766 631.714C-247.578 633.075 -248.834 631.927 -247.483 633.417C-244.237 636.969 -244.244 636.373 -242.615 638.188C-241.828 639.061 -240.174 641.188 -237.837 643.697C-225.697 656.699 -216.508 664.812 -210.476 670.223C-152.5 722.44 -78.4485 757.971 -6.95438 771.671C0.980347 773.231 10.9778 774.751 23.0736 776.478C23.4334 776.641 23.7936 776.803 24.1543 776.966C24.5946 776.903 25.0349 776.84 25.475 776.776C39.3103 778.267 44.5017 778.541 58.6641 779.365C59.8757 779.431 63.5779 780.101 65.902 779.489C75.5378 780.022 74.9518 779.815 77 779.709C77.9377 779.65 79.4326 779.597 82.7077 779.543C93.1376 779.362 103.234 779.018 113.315 778.215C118.888 778.074 95.6489 780.273 94.1669 780.171C91.7311 780.264 89.1864 780.01 86.8338 780.044C83.2882 780.097 79.7911 780.182 77 780.203C74.3055 780.224 72.2826 780.189 71.5151 780.034C62.4907 780.198 73.7207 780.231 72.5939 780.484C66.56 780.307 60.5626 780.008 54.5981 779.587C51.3996 780.716 18.4791 776.211 20.7077 776.974C18.1061 776.49 15.5145 775.982 12.9331 775.452C1.31027 774.589 -5.26694 772.837 -20.3215 769.179C-19.2614 769.543 -18.1988 769.902 -17.1338 770.258C-17.4709 770.286 -30.7711 767.292 -25.9154 767.947C-39.617 765.169 -38.7945 764.227 -50.993 761.398C-58.1269 759.239 -53.7704 760.268 -66.3731 755.964C-73.7995 753.377 -83.0949 750.081 -91.209 746.667C-93.0836 745.879 -93.7958 745.284 -95.4562 744.565C-97.1155 743.842 -98.0295 743.726 -100.034 742.837C-104.18 741.005 -109.398 738.339 -111.949 737.113C-114.237 736.015 -117.604 734.634 -123.044 731.847C-141.927 721.894 -136.008 724.498 -138.912 722.796C-141.986 720.877 -144.458 719.965 -150.59 716.135C-151.204 715.749 -149.469 716.508 -151.477 715.276C-153.089 714.272 -154.073 714.041 -159.383 710.665C-161.723 709.672 -193.32 686.92 -197.618 682.797C-204.734 677.134 -219.655 663.456 -226.286 656.797C-228.873 654.265 -231.773 651.688 -234.451 648.923C-243.382 639.815 -256.901 624.475 -266.701 611.605C-275.763 600.171 -289.458 578.59 -293.861 571.926C-304.418 554.423 -306.05 549.634 -306.828 548.316C-308.743 544.621 -309.865 543.03 -312.209 538.322C-339.747 484.906 -357.587 408.637 -356.593 347C-356.591 338.649 -356.355 330.664 -355.941 323.022C-349.251 173.081 -256.763 30.182 -122.591 -38.1251C-122.289 -38.4146 -121.986 -38.7037 -121.682 -38.9925C-137.508 -30.9747 -155.535 -20.3646 -169.948 -10.3792C-189.447 2.65774 -215.533 25.6542 -228.134 37.3415C-223.247 32.3648 -214.668 24.9156 -215.084 24.7614C-224.338 33.1153 -233.234 41.8628 -241.743 50.9773C-241.35 50.8346 -240.957 50.6927 -240.564 50.5513C-249.398 60.0873 -258.07 70.1864 -266.055 80.4996C-267.44 82.2931 -266.321 81.1297 -267.525 82.693C-268.867 84.4455 -268.097 83.1506 -268.349 83.4781C-271.735 87.9191 -272.566 89.3941 -272.976 89.9375C-274.011 91.3431 -273.361 90.1354 -276.344 94.1934C-281.861 101.741 -285.135 107.606 -284.551 105.354C-286.23 107.861 -287.883 110.386 -289.511 112.929C-289.76 113.698 -290.007 114.467 -290.252 115.236C-300.806 130.54 -303.521 138.858 -309.297 147.375C-310.697 150.46 -312.06 153.561 -313.388 156.678C-314.409 158.304 -315.417 159.93 -316.415 161.565C-316.415 161.976 -316.414 162.386 -316.413 162.797C-324.292 179.23 -331.16 197.4 -336.484 213.978C-340.147 225.549 -340.978 228.309 -343.705 238.735C-349.275 261.952 -344.235 238.741 -348.91 258.101C-348.488 257.128 -348.063 256.157 -347.635 255.189C-348.253 258.435 -348.829 261.666 -349.368 264.902C-349.97 267.114 -350.555 269.333 -351.123 271.562C-351.976 281.758 -353.508 288.129 -353.701 289.512C-353.819 290.618 -353.905 294.495 -355.513 306.407C-354.324 301.525 -356.316 315.518 -356.343 316.673C-356.467 317.761 -357.051 331.519 -357.117 337.111C-357.172 339.409 -357.277 343.073 -357.317 347C-357.357 350.594 -357.341 354.385 -357.262 357.518C-357.102 363.302 -356.84 362.7 -356.829 363.123C-356.518 370.217 -356.91 365.762 -356.661 370.913C-356.391 376.078 -355.863 380.043 -355.797 381.151C-355.764 381.71 -356.147 379.865 -355.968 382.417C-355.518 389.242 -353.954 401.641 -352.804 409.39C-352.413 412.134 -352.075 415.652 -351.569 418.726C-350.79 423.435 -350.117 425.572 -349.615 428.288C-349.438 429.231 -348.717 435.334 -346.97 442.797C-346.636 444.218 -344.853 448.171 -344.666 453.955C-344.39 454.336 -344.114 454.716 -343.837 455.095C-336.86 479.738 -335.441 486.825 -330.467 497.116C-323.985 514.559 -328.98 502.799 -328.331 504.737C-327.906 505.991 -325.521 511.569 -325.265 512.183C-324.83 513.279 -325.053 513.152 -324.555 514.345C-315.104 536.131 -318.94 526.293 -315.661 533.045C-307.448 548.899 -301.913 561.733 -315.571 533.808C-315.65 533.846 -315.729 533.884 -315.808 533.921C-312.551 540.864 -303.414 558 -306.857 552.488C-310.096 548.411 -329.036 506.261 -318.64 530.276C-316.219 535.695 -314.643 538.356 -310.479 547.79C-307.341 553.834 -306.209 554.33 -301.958 562.515C-302.467 561.06 -302.967 559.604 -303.46 558.147C-297.092 568.951 -289.292 582.325 -283.736 590.194C-281.891 592.915 -273.989 601.741 -276.654 600.273C-273.553 604.814 -257.744 625.364 -254.37 628.829C-253.553 629.657 -252.239 630.517 -241.095 643.004C-240.367 643.916 -239.636 644.825 -238.9 645.731C-249.583 634.734 -231.191 654.608 -236.724 649.729C-238.281 647.749 -246.423 638.698 -247.581 637.11C-249.602 634.437 -242.768 641.667 -251.217 632.224C-257.347 626.954 -241.813 643.751 -244.881 641.825C-233.159 653.724 -232.146 655.056 -229.507 657.769C-218.009 669.128 -210.326 675.815 -198.625 685.595C-195.706 687.888 -216.536 669.792 -218.949 667.369C-209.152 675.272 -225.145 660.739 -231.809 654.494C-232.184 653.786 -232.556 653.078 -232.926 652.369C-224.691 660.904 -216.269 668.873 -207.255 676.408C-206.733 676.974 -206.21 677.539 -205.685 678.103C-207.775 676.49 -209.852 674.857 -211.914 673.206C-204.68 679.8 -208.731 675.502 -199.095 684.304C-198.616 684.357 -198.137 684.408 -197.658 684.458C-188.039 692.41 -178.079 699.95 -167.802 707.057C-162.245 710.442 -141.88 723.157 -145.959 721.415C-137.627 726.382 -147.772 720.014 -139.837 724.444C-136.386 726.371 -129.589 730.079 -127.993 731.124C-129.031 731.347 -139.232 725.811 -142.463 724.392C-141.068 726.336 -92.504 749.768 -96.9255 747.947C-92.9943 749.733 -94.6723 748.632 -87.4604 751.493C-67.3118 759.722 -35.095 770.173 -17.7258 772.738C-37.61 767.609 -43.594 766.351 -58.627 761.609C-68.619 759.635 -124.793 734.718 -111.888 739.549C-113.957 738.648 -116.019 737.732 -118.074 736.8C-120.018 735.595 -121.952 734.377 -123.872 733.144C-118.182 736.077 -112.399 738.897 -106.595 741.57C-105.296 742.401 -103.992 743.226 -102.681 744.044C-101.977 744.203 -101.273 744.36 -100.569 744.515C-98.0926 745.591 -95.6048 746.645 -93.1057 747.676C-93.8733 747.54 -94.6408 747.402 -95.4081 747.262C-91.5826 748.945 -87.7696 750.557 -83.9077 752.125C-84.8629 751.493 -85.8141 750.858 -86.7618 750.219C-68.5217 757.341 -74.7216 755.006 -64.6431 759.071C-56.9601 761.693 -69.8515 756.999 -53.4763 762.194C-34.3495 767.721 -47.1522 765.107 -22.0523 771.213C-21.6631 771.184 -21.2743 771.153 -20.8854 771.123C-15.3745 772.51 -9.80936 773.793 -4.26663 774.958C-4.97717 774.676 -5.68634 774.392 -6.39401 774.106C5.08865 776.473 21.1354 778.383 24.937 779.359C13.1689 777.617 13.1752 778.502 16.2027 779.142C19.528 779.86 48.1825 783.725 77 783.485C101.954 783.559 126.693 780.707 135.118 779.509C158.311 776.303 175.752 772.876 196.233 766.645C182.363 771.043 132.289 780.478 122.504 780.445C121.541 780.509 121.735 779.605 115.728 781.182C104.007 782.111 90.9623 782.837 77 782.896C67.4003 782.936 57.6347 782.671 47.5247 781.985C48.2979 781.773 49.0701 781.559 49.8417 781.343C62.7853 782.646 74.9652 781.831 77 782.215C77.3428 782.28 77.3932 782.381 77.105 782.529C80.1466 782.529 83.181 782.497 86.2077 782.434C86.204 782.258 86.2004 782.082 86.1967 781.906C90.7556 781.811 95.2889 781.647 99.8203 781.413C99.8294 781.589 99.8384 781.765 99.8475 781.94C103.637 781.744 107.414 781.5 111.177 781.208C111.556 781.003 111.934 780.797 112.311 780.59C123.64 780.529 161.581 773.482 144.991 777.164C150.255 776.339 155.487 775.419 160.686 774.407C160.644 774.284 160.603 774.161 160.561 774.038C162.791 773.587 165.011 773.119 167.25 772.629C166.538 772.898 165.824 773.166 165.109 773.432C175.352 771.121 185.048 769.32 191.611 767.11C187.204 768.219 182.805 769.251 178.388 770.214C186.855 768.458 202.196 763.682 203.52 763.221C207.67 761.952 209.969 761.498 214.46 760.026C218.512 758.681 217.885 758.668 218.64 758.42C240.347 750.858 232.505 754.736 242.012 749.616C243.135 749.344 244.258 749.068 245.379 748.787C246.722 748.066 248.075 747.331 249.415 746.593C255.671 743.905 261.837 741.081 267.952 738.106C265.814 738.908 263.683 739.687 261.543 740.451C270.69 736.024 275.086 734.163 275.972 733.736C278.463 732.478 279.46 731.635 280.221 731.232C316.405 710.973 294.586 723.599 312.843 713.624C318.831 709.246 312.332 712.999 311.223 713.208C319.573 708.031 322.062 706.218 330.526 700.22C332.721 698.651 335.19 697.11 336.557 696.094C337.745 695.217 341.29 692.25 344.078 690.067C348.735 686.44 354.933 681.607 361.051 676.315C366.198 671.988 381.284 657.971 391.115 647.514C395.335 643.078 394.489 644.231 395.573 643.078C396.024 642.597 399.091 638.932 401.696 635.996C423.011 612.091 442.252 585.244 457.811 557.041C468.789 537.189 478.17 516.068 485.904 494.695C487.536 490.153 486.838 492.616 487.545 490.63C487.776 489.94 487.825 489.041 490.282 481.973C491.159 479.414 490.403 482.44 491.23 479.911C491.618 478.678 491.586 478.071 493.693 470.838C497.465 457.644 499.415 450.509 499.716 449.329C500.233 447.078 499.867 447.685 500.55 444.7C503.852 430.06 505.96 417.724 507.709 404.51C509.095 398.34 511.859 355.45 511.426 353.045C511.56 348.068 511.943 352.118 511.997 347C512 346.664 512 346.288 511.998 345.868C511.877 343.957 511.743 342.05 511.597 340.148C511.566 342.429 511.517 344.713 511.45 347C511.428 347.747 511.405 348.494 511.379 349.24C511.396 348.502 511.408 347.754 511.416 347C511.507 339.234 511.076 330.932 510.802 325.367C510.773 324.237 510.359 313.741 509.833 308.453C510.117 310.699 510.384 312.951 510.634 315.209C510.65 314.403 510.663 313.597 510.674 312.791C509.745 302.205 508.45 290.903 506.799 280.135C506.19 276.222 506.581 277.514 505.926 273.562C501.721 250.686 502.212 256.573 498.131 234.508C500.204 241.796 506.087 268.806 506.505 272.817C506.987 275.592 507.424 286.492 508.034 282.382C510.995 304.541 507.989 285.352 510.368 306.108C510.477 305.68 510.585 305.252 510.693 304.824C511.477 312.055 511.909 317.447 511.904 321.907C512.468 322.953 513.096 334.998 513.003 347C512.978 352.359 512.841 357.639 512.713 361.835C512.171 381.499 510.046 403.668 506.658 422.887C505.502 429.509 504.447 433.161 504.287 433.985C504.049 435.183 503.582 438.642 503.053 441.045C501.331 450.092 493.442 476.842 491.686 483.611C506.186 439.62 513.507 393.369 513.49 347C513.49 338.579 513.254 330.263 512.781 321.91C513.471 328.685 507.91 273.8 506.557 271.099C506.12 268.542 506.733 270.65 506.612 269.889C505.705 264.21 504.389 259.508 504.015 257.711C503.729 256.348 503.319 253.555 502.21 248.736C502.006 247.852 501.783 247.645 501.56 246.697C500.086 240.436 498.492 234.267 496.729 228.037C496.624 227.657 496.417 226.019 495.959 224.451C495.5 222.879 494.798 221.402 494.678 221.008C493.216 216.074 490.608 207.554 488.97 202.927C488.405 201.318 488.627 202.493 487.99 200.693C486.004 195.178 487.018 196.853 484.345 190.085C483.433 187.823 483.25 188.063 481.547 183.724C480.33 180.657 480.905 180.805 480.724 180.313C480.5 179.631 475.654 169.279 474.354 165.777C478.505 172.852 470.663 157.65 470.643 158.582C468.769 154.467 466.828 150.376 464.827 146.324C464.038 144.997 463.242 143.675 462.44 142.358C454.145 126.111 448.152 116.687 438.249 101.741C437.821 100.982 429.229 88.5336 429.703 89.062C435.236 96.2307 440.324 103.733 443.142 108.803C448.922 116.42 448.623 116.833 456.457 130.079C459.042 134.544 459.381 134.778 459.676 135.293C469.765 152.659 482.82 182.135 486.712 195.117C488.207 198.609 483.44 185.831 485.438 190.743C487.824 192.991 506.867 259.901 500.215 238.684C500.802 240.904 501.371 243.131 501.923 245.365C503.139 247.435 505.43 258.707 504.495 257.568C504.849 258.609 505.197 259.643 505.541 260.677C506.072 262.752 506.619 265.227 507.289 268.725C509.511 278.098 514.879 320.761 514.261 347C514.249 358.147 513.83 366.174 513.808 367.454C513.959 367.559 514.11 367.663 514.261 367.768C514.617 360.86 514.792 353.948 514.794 347C514.768 318.214 511.988 289.47 506.027 258.466C506.112 259.609 506.192 260.746 506.268 261.886C503.447 246.519 499.795 231.297 495.343 216.341C500.665 231.972 507.054 257.652 509.514 274.843C509.976 277.904 509.409 275.697 509.499 276.403C509.725 278.249 510.422 280.165 511.373 286.739C512.41 293.319 513.798 310.026 513.858 311.543C514.122 314.469 515.063 322.47 515.258 327.475C515.516 334.069 515.088 329.659 515.135 330.982C515.307 336.46 515.507 341.395 515.501 345.721C515.501 346.122 515.498 346.549 515.493 347C515.468 353.794 514.741 365.675 515.096 369.862C515.359 365.322 515.552 360.773 515.676 356.201C515.297 380.961 512.561 400.221 509.017 424.348C508.831 429.961 512.2 410.025 509.579 426.92C510.128 423.868 510.645 420.806 511.131 417.733C511.086 416.987 511.038 416.241 510.989 415.495C511.931 410.236 512.773 404.99 513.524 399.687C513.198 401.186 512.865 402.68 512.524 404.171C514.93 385.354 515.622 366.268 516.556 359.709C516.377 359.314 516.198 358.92 516.018 358.526C516.158 354.949 516.218 350.994 516.203 347C516.204 331.396 514.695 315.609 515.8 319.451C515.692 318.621 515.583 317.792 515.471 316.964C514.91 306.343 514.79 310.911 514.409 306.944C514.411 305.842 512.22 285.242 513.612 294.313C511.256 274.296 510.952 280.634 510.092 275.142C508.652 262.299 502.604 239.866 505.551 249.2C505.154 247.319 504.744 245.443 504.322 243.571C502.257 237.606 501.336 231.393 499.66 224.754C499.03 222.522 498.383 220.298 497.718 218.081C497.07 216.661 496.411 215.236 495.746 213.816C489.813 192.77 489.395 200.312 488.058 190.158C488.738 191.563 489.41 192.973 490.076 194.388C491.415 197.827 492.704 201.267 493.955 204.738C489.216 190.659 483.745 176.79 477.581 163.235C470.143 145.858 464.571 136.581 454.224 118.33C453.151 116.678 452.068 115.035 450.974 113.399C452.453 114.837 456.47 121.341 449.08 109.177C448.736 107.951 453.936 116.057 455.927 119.968C456.413 120.905 451.551 113.362 456.737 122.01C460.167 127.952 454.424 116.865 464.387 134.874C464.096 134.163 463.804 133.453 463.51 132.743C464.592 134.696 465.661 136.66 466.71 138.624C467.467 140.466 468.212 142.314 468.944 144.165C471.517 148.558 473.276 150.916 478.129 161.492C476.676 158.686 478.15 162.722 480.497 167.984C480.631 167.924 480.765 167.865 480.899 167.806C486.554 180.596 484.258 176.297 488.871 186.955C489.184 188.08 489.492 189.206 489.795 190.334C492.662 196.013 500.224 218.048 498.184 214.243C500.863 220.229 504.266 233.563 504.918 238.649C505.155 238.992 505.391 239.335 505.627 239.679C506.311 242.299 506.972 244.929 507.609 247.569C507.863 249.065 508.109 250.563 508.348 252.063C508.846 253.926 509.332 255.794 509.807 257.668C509.898 258.835 509.982 259.995 510.063 261.159C510.83 264.149 511.568 267.153 512.275 270.171C512.487 272.056 512.687 273.944 512.875 275.835C513.295 275.999 516.015 294.483 516.258 299.771C516.512 301.322 516.756 302.861 516.992 304.399C516.92 305.169 516.846 305.94 516.77 306.71C516.99 307.852 517.205 308.996 517.416 310.143C517.521 312.817 517.601 315.495 517.658 318.177C519.024 329.083 518.308 329.404 518.422 331.9C518.528 334.661 518.853 341.423 518.966 347C519.05 350.719 519.064 353.879 519.036 354.933C518.964 357.565 518.675 358.826 518.588 360.942C516.482 395.817 517.604 381.503 517.273 388.503C516.981 392.255 516.459 394.92 516.103 398.252C515.755 403.982 511.365 432.56 510.792 434.127C510.267 436.486 510.315 430.686 509.011 438.445C509.614 438.85 505.23 455.099 507.829 447.635C506.188 454.359 504.387 461.054 502.426 467.707C503.32 467.153 500.606 475.232 497.74 484.117C494.001 496.782 483.126 524.461 482.729 523.118C481.623 526.086 480.485 529.041 479.315 531.982C470.05 551.535 459.977 570.249 448.261 588.268C413.758 641.922 362.963 691.144 308.69 724.001C306.085 725.591 306.334 725.155 304.455 726.283C294.696 732.397 268.254 746.592 253.309 752.741C248.546 754.79 246.135 755.516 244.617 756.131C239.454 758.19 240.778 757.973 238.391 758.909C234.649 760.499 214.436 767.419 207.325 769.421C203.847 770.478 199.783 771.933 195.644 773.003C195.289 773.096 195.875 772.672 195.574 772.751C188.055 774.774 192.629 773.748 190.079 774.421C171.948 779.131 152.173 783.048 132.004 785.489C126.981 786.115 119.253 786.729 114.952 787.064C113.305 787.193 116.279 787.155 110.578 787.585C108.624 787.724 107.938 787.524 105.727 787.652C96.1608 788.162 93.0905 789.057 84.8617 788.591C82.4834 788.639 79.8356 788.676 77 788.689C60.9905 788.867 39.3526 787.594 27.1762 786.134C23.7772 785.749 22.1446 785.401 18.9222 784.984C16.635 784.688 12.597 784.357 9.0433 783.808C5.46942 783.259 -0.119568 782.133 -6.90381 780.836C-14.0279 779.499 -22.9521 777.596 -24.5342 777.209C-26.4649 776.754 -27.2989 776.272 -29.2214 775.802C-35.0466 774.448 -50.6138 770.387 -57.9633 767.979C-65.8975 765.461 -70.5328 763.636 -73.1999 762.683C-75.6629 761.799 -78.6321 760.933 -79.7549 760.507C-81.5052 759.845 -81.8216 759.436 -84.0329 758.576C-87.6447 757.162 -91.4067 755.836 -96.7587 753.556C-193.259 712.507 -271.87 637.074 -317.471 546.063C-322.515 535.878 -325.524 530.218 -331.887 514.734C-334.403 508.441 -333.078 510.987 -335.049 506.092C-335.916 503.903 -335.911 504.539 -336.97 501.752C-341.671 489.478 -345.999 474.734 -347.533 469.27C-348.155 467.098 -349.106 464.682 -350.3 460.19C-359.316 426.809 -364.898 386.074 -364.928 348.842C-364.931 348.238 -364.933 347.623 -364.934 347C-365.112 327.281 -363.169 298.617 -359.587 277.001C-350.235 215.128 -324.248 151.675 -292.61 104.317C-245.44 32.4031 -177.269 -25.2335 -98.2946 -58.9898C-135.616 -44.031 -182.674 -14.9143 -215.975 15.077C-308.061 94.6042 -366.922 221.572 -365.574 347C-365.572 355.118 -365.354 363.144 -364.925 371.148C-362.891 417.238 -350.344 474.733 -330.167 521.067C-329.272 523.179 -327.203 527.457 -325.151 531.953C-324.757 532.922 -319.446 544.834 -317.392 548.724C-318.766 544.757 -311.337 560.26 -308.606 564.849C-305.293 570.683 -297.962 582.605 -289.268 595.66C-281.303 607.474 -283.662 604.334 -283.244 605.001C-280.376 609.149 -279.016 610.327 -276.666 613.391C-268.511 627.12 -212.221 685.836 -192.869 698.119C-188.225 701.681 -188.219 701.953 -187.167 702.745C-184.367 704.831 -180.211 707.565 -175.619 710.761C-167.356 716.55 -157.673 722.955 -152.906 725.83C-141.645 732.851 -119.275 744.59 -103.47 751.47C-99.0339 753.438 -99.3996 753.538 -97.379 754.41C-88.5567 758.382 -64.8443 766.911 -53.2941 770.257C-34.6887 775.982 -15.1223 780.769 4.4292 783.9C5.65283 784.216 6.87906 784.528 8.10806 784.835C10.1011 785.025 12.0548 785.196 14.0319 785.358C34.7851 788.371 55.8762 789.781 77 789.717C89.7214 789.678 102.259 789.114 114.74 788.067C118.531 787.861 137.502 785.893 140.597 785.34C143.195 784.965 145.72 784.304 149.593 783.709C155.005 782.846 150.026 784.283 158.801 782.536C161.154 782.048 158.828 782.27 163.543 781.276C165.165 781.204 195.255 773.924 196.808 773.224C199.485 772.501 201.995 772.274 202.685 772.081C206.267 771.074 206.004 770.753 208.374 769.987C215.408 767.727 224.572 764.791 225.692 764.372C239.4 759.618 264.156 748.678 277.697 741.761C279.579 740.827 279.482 741.188 279.815 741.028C281.958 739.986 283.12 739.016 285.112 737.946C295.891 732.25 312.394 722.628 322.579 715.798C323.756 715.021 326.143 713.227 328.225 711.807C339.947 703.701 336.266 706.497 336.947 706.057C338.517 704.948 341.084 702.748 345.143 699.638C355.694 691.756 374.918 675.369 384.963 665.444C392.541 658.073 392.58 658.333 393.087 657.858C394.132 656.804 396.858 653.705 401.58 648.592C410.597 638.688 409.675 639.909 413.293 635.756C413.59 635.4 412.908 635.875 416.823 631.186C424.512 622.237 440.584 601.124 447.36 590.443C450.019 586.377 450.44 585.296 453.079 581.079C457.34 574.437 466.306 559.063 466.915 557.785C467.101 557.439 467.291 556.54 468.376 554.5C469.569 552.256 470.842 550.097 471.705 548.407C476.737 538.813 483.821 521.619 482.583 526.721C483.775 523.46 484.935 520.167 486.042 516.894C494.765 496.011 501.541 475.067 506.87 453.289C508.061 448.403 509.169 444.338 510.055 440.166C511.052 435.999 514.093 417.531 514.465 414.379C515.602 408.927 518.809 377.294 518.773 373.304C519.275 365.582 519.852 358.156 519.827 354.99C519.803 352.463 519.561 354.798 519.543 349.974C519.537 349.047 519.533 348.048 519.53 347C519.542 338.591 519.321 327.197 519.184 324.956C519.11 323.88 519.123 325.904 518.45 315.741C518.057 310.273 517.968 307.339 517.786 305.364C517.704 304.742 517.592 305.729 516.417 294.909C515.561 287.461 515.302 284.288 515.2 283.509C515.031 282.343 514.386 279.578 513.628 274.883C511.968 263.93 508 244.058 505.238 233.914C504.709 231.946 504.644 232.673 502.465 224.86C500.872 219.286 501.372 220.195 500.759 218.114C499.775 214.835 497.969 209.98 495.509 202.797C493.837 193.166 463.961 128.621 460.956 126.009C459.768 123.837 458.31 121.365 457.794 120.246C458.442 121.083 459.086 121.923 459.728 122.766C464.809 132.419 463.023 128.374 464.484 130.875C466.647 134.49 473.904 148.5 475.627 151.93C476.255 153.14 475.161 150.206 478.451 156.748C481.942 163.787 482.885 167.199 484.747 169.806C488.526 180.334 493.079 190.037 488.472 177.963C487.109 170.65 454.469 107.62 444.973 96.4309C438.469 86.641 425.077 69.1885 415.652 58.2562C410.28 51.6833 395.973 36.4531 396.777 36.9002C391.542 31.4794 396.87 37.4239 395.729 36.3273C393.464 33.9204 376.676 17.4604 373.233 14.6285C356.886 -0.0494308 334.534 -16.4548 316.758 -28.219C317.644 -27.7626 318.529 -27.3031 319.412 -26.8407C323.608 -24.505 341.666 -11.4904 343.861 -10.237C317.798 -29.74 289.598 -46.3876 259.909 -59.7554C260.457 -59.5467 222.982 -74.5233 221.084 -74.8684C221.814 -74.8146 222.545 -74.759 223.275 -74.7016C244.511 -66.3121 242.854 -67.705 256.778 -61.2426C262.478 -58.6989 260.879 -59.7362 263.701 -58.5116C291.532 -45.7218 263.988 -57.9676 284.989 -47.596C278.956 -51.2861 296.035 -42.4933 303.423 -38.0622C305.206 -37.2401 326.889 -23.3614 329.301 -21.4781C343.601 -11.9807 366.862 6.23879 379.11 18.1201C388.943 27.2675 394.396 32.2772 402.842 41.0908C409.193 47.8365 407.205 46.0562 410.127 49.2902C416.194 56.1247 418.635 58.0209 421.651 63.1277C425.682 67.8314 429.618 72.6222 433.457 77.4974C433.34 77.5858 433.224 77.6742 433.107 77.7627C435.458 80.8681 437.763 83.9952 440.031 87.1582C440.816 88.0034 441.599 88.8524 442.379 89.7048C449.279 99.9681 446.012 95.9474 446.979 98.0783C448.443 100.302 449.888 102.539 451.314 104.79C452.703 106.347 454.082 107.915 455.453 109.496C461.78 119.606 467.702 129.97 473.192 140.54C473.419 141.291 473.644 142.042 473.867 142.793C474.008 142.748 474.15 142.704 474.291 142.659C483.571 160.601 491.617 179.147 498.373 198.188C500.571 203.122 489.29 172.758 488.052 170.616C483.134 157.836 465.957 125.942 466.134 125.772C461.768 118.49 448.17 96.9036 443.818 90.2263C450.727 100.126 457.231 110.299 463.312 120.712C463.265 120.288 463.217 119.863 463.169 119.439C470.108 132.812 471.186 134.69 478.764 148.2C478.561 148.317 478.358 148.434 478.154 148.551C483.786 157.805 490.038 175.902 491.103 176.023C493.218 181.352 495.233 186.73 497.146 192.154C501.113 203.872 496.931 184.979 510.276 231.707C511.107 234.958 510.698 234.347 511.931 239.21C512.246 240.605 514.781 248.595 517.693 264.204C518.139 266.643 517.954 266.867 518.373 269.407C519.376 275.283 521.472 286.924 519.999 281.717C522.905 305.022 522.103 295.353 523.163 302.573C523.778 307.386 523.266 306.452 523.71 310.635C524.153 315.808 524.645 312.012 525.295 332.84C525.193 330.502 525.074 328.169 524.936 325.841C524.875 327.018 524.809 328.195 524.739 329.373C525.411 341.246 524.895 340.146 525.601 345.779C525.588 346.188 525.576 346.595 525.563 347C525.292 355.218 525.147 362.504 524.554 373.784C522.925 396.748 524.892 385.103 520.658 411.047C520.191 415.251 519.654 419.51 519.061 423.729C517.556 430.571 518.269 424.96 516.223 435.168C518.525 427.296 513.885 448.849 513.466 452.579C513.232 452.924 512.998 453.269 512.763 453.613C512.211 455.88 511.645 458.124 511.054 460.391C511.166 460.428 511.278 460.464 511.39 460.501C510.518 463.497 509.616 466.478 508.685 469.446C508.16 471.727 507.618 474.003 507.058 476.273C505.721 479.872 504.33 483.478 502.897 487.053C502.127 489.34 501.34 491.618 500.535 493.889C500.95 493.226 501.364 492.561 501.776 491.895C500.72 494.811 499.634 497.712 498.52 500.599C499.996 497.306 499.636 499.567 496.171 508.612C493.221 516.023 496.123 507.518 489.764 523.416C489.265 524.499 489.035 526.731 482.162 541.395C473.626 558.885 477.485 550.238 475.931 553.336C475.617 553.943 473.076 559.296 470.398 564.183C468.885 566.957 467.224 569.51 467.018 569.871C466.055 571.563 465.986 572.179 464.629 574.51C461.192 580.425 456.214 588.184 452.525 593.781C450.854 596.331 449.367 598.785 448.6 599.913C447.411 601.661 445.702 603.737 444.472 605.481C439.975 611.945 433.309 621.932 430.216 624.159C426.338 630.759 415.142 642.108 416.356 641.612C403.609 657.43 363.989 694.297 364.147 692.019C355.879 700.01 356.202 698.795 352.443 701.778C348.201 705.073 350.515 703.518 347.106 706.093C339.135 712.071 331.283 717.5 322.994 722.934C324.216 721.959 325.433 720.978 326.643 719.991C317.941 725.685 321.141 724.034 312.163 729.723C295.49 739.901 302.364 735.354 299.703 736.507C300.619 736.554 280.357 747.501 278.165 748.372C276.891 748.947 282.205 745.886 269.591 752.175C270.348 751.976 271.104 751.775 271.863 751.571C266.054 754.264 250.131 761.509 247.359 762.505C246.089 763.008 238.939 764.641 233.014 767.819C232.209 767.962 231.4 768.104 230.599 768.24C223.741 770.928 216.788 773.456 209.766 775.812C208.564 775.908 207.362 776 206.16 776.086C203.922 776.759 201.676 777.415 199.423 778.054C200.982 777.854 202.54 777.647 204.097 777.431C190.19 781.513 173.013 785.715 169.904 785.521C166.883 786.307 163.901 787.052 160.882 787.771C158.853 787.889 156.823 787.992 154.793 788.082C140.622 790.532 140.462 790.629 130.749 792.147C131.106 791.899 131.462 791.65 131.818 791.4C124.641 792.598 111.601 794.121 101.111 794.677C96.1663 794.979 87.6651 794.941 86.4893 794.976C85.7468 795.012 80.8614 795.543 77 795.625C74.7278 795.677 72.8266 795.586 72.3609 795.227C55.2028 795.412 47.7013 794.306 40.7675 793.808C36.2657 793.446 34.225 793.494 29.1312 792.987C21.8302 792.255 14.5691 791.149 10.4147 790.541C8.04218 790.195 7.54742 790.342 5.90073 790.089C-1.88434 788.841 2.69879 789.402 -5.46124 787.946C-6.22095 787.807 -12.1881 786.984 -18.8933 785.482C-22.6434 784.68 -32.1662 782.068 -32.9976 781.834C-36.7173 780.861 -33.9489 782.349 -46.4899 778.112C-46.1534 778.33 -45.8167 778.547 -45.4792 778.764C-61.2537 774.51 -63.5167 772.962 -66.6395 771.925C-67.0384 771.79 -70.8714 770.694 -73.1021 769.867C-76.8705 768.475 -78.2936 767.641 -79.1273 767.321C-82.07 766.209 -91.9733 762.499 -98.201 759.524C-97.2246 760.932 -119.454 751.255 -123.783 747.874C-127.693 746.108 -131.575 744.287 -135.43 742.411C-137.065 741.365 -138.702 740.303 -140.326 739.234C-141.428 738.789 -142.529 738.339 -143.628 737.885C-148.915 734.525 -154.104 731.071 -159.24 727.498C-159.747 727.561 -160.255 727.624 -160.764 727.685C-162.228 726.725 -163.687 725.757 -165.139 724.781C-166.15 723.828 -167.155 722.871 -168.155 721.91C-170.007 720.755 -171.85 719.586 -173.685 718.404C-174.237 718.255 -174.789 718.104 -175.341 717.952C-185.1 711.369 -179.298 713.694 -198.059 701.406C-200.72 699.153 -203.354 696.87 -205.958 694.559C-209.46 692.634 -214.844 687.561 -219.348 683.683C-222.522 680.945 -222.549 681.319 -226.772 677.465C-230.977 673.588 -230.623 673.511 -230.95 673.209C-234.324 669.997 -237.002 667.711 -239.396 665.267C-239.754 664.896 -240.454 663.771 -243.488 660.649C-246.512 657.516 -248.589 655.867 -252.952 651.059C-255.179 648.588 -255.622 647.694 -257.571 645.482C-266.84 634.956 -276.781 624.724 -281.795 615.295C-283.433 613.574 -294.084 599.983 -298.032 593.739C-304.236 584.084 -301.536 587.607 -303.926 583.722C-304.251 583.152 -306.258 580.279 -311.091 571.965C-311.952 570.474 -311.906 570.908 -312.032 570.695C-317.746 561.017 -327.592 541.554 -332.489 530.255C-332.922 529.255 -335.808 524.174 -338.845 514.886C-344.898 501.666 -352.662 475.541 -357.889 457.155C-358.553 454.6 -359.128 451.437 -359.401 450.299C-361.629 440.469 -361.744 444.214 -364.975 421.641C-364.93 423.52 -366.127 418.252 -367.166 410.817C-368.654 399.59 -367.103 407.506 -368.241 398.463C-368.386 398.479 -368.531 398.496 -368.676 398.513C-370.447 377.647 -371.332 373.492 -371.805 352.465C-371.825 350.777 -371.822 348.908 -371.797 347C-371.722 340.325 -371.316 333.271 -371.264 331.874C-371.26 331.169 -371.253 322.946 -371.192 322.126C-370.953 317.66 -370.617 315.16 -370.319 311.33C-369.391 298.733 -367.734 283.563 -367.28 286.417C-366.987 282.934 -366.659 279.496 -366.28 275.991C-363.328 263.075 -362.405 253.262 -360.973 250.711C-360.642 248.366 -360.292 246.025 -359.925 243.688C-346.883 188.588 -323.172 136.074 -290.609 89.8168C-289.686 87.7129 -274.781 68.0343 -273.828 67.1756C-270.021 62.7838 -273.471 67.8831 -266.013 58.6865C-265.372 57.5131 -264.725 56.3418 -264.073 55.1724C-254.352 43.87 -258.847 49.4653 -254.795 45.204C-253.162 43.3682 -253.854 43.8107 -251.603 41.3607C-239.628 27.8392 -212.316 2.75172 -196.441 -9.00636C-193.283 -11.4307 -193.638 -10.9055 -192.653 -11.6516C-189.943 -13.6998 -184.699 -17.878 -179.092 -21.7707C-144.831 -46.4661 -90.3474 -72.4953 -49.3164 -83.5574C-46.5475 -84.35 -46.14 -84.2235 -44.2656 -84.7399C-41.6755 -85.4613 -35.878 -87.1992 -33.137 -87.8604C-30.5502 -88.4932 -28.8513 -88.7299 -26.0699 -89.3657C-13.3307 -92.3175 3.93234 -95.8209 17.8287 -97.0856C18.9803 -97.2562 33.6772 -97.9777 33.9737 -97.8882C35.9301 -97.6742 23.1177 -96.0535 44.2991 -97.3014C25.4666 -95.158 31.3902 -95.3187 55.9807 -96.3284C43.6329 -95.6492 31.4265 -94.4718 19.1905 -92.7767C19.1853 -92.6791 19.1802 -92.5815 19.175 -92.4839C30.3743 -93.4272 41.3868 -94.4575 58.4039 -95.1597C57.8796 -95.049 57.3558 -94.9373 56.8326 -94.8247C41.8255 -93.7686 23.8289 -91.7854 12.6586 -89.4838C29.2463 -91.4554 45.9881 -92.4817 62.6366 -92.5653C61.8077 -92.4685 60.9799 -92.3694 60.153 -92.268C52.206 -91.8788 34.7894 -90.4316 28.2318 -89.4479C3.15399 -85.9241 50.2909 -91.2871 42.5809 -89.9134C15.9904 -87.864 -10.4117 -83.3907 -36.1861 -76.5328C-37.5318 -78.7585 64.0661 -92.7641 63.2076 -89.0996C54.915 -88.7839 46.517 -88.2267 38.2389 -87.4377C41.9539 -87.5407 45.6764 -87.5971 49.406 -87.6066C48.3866 -87.472 47.3687 -87.3339 46.3522 -87.1924C32.3749 -86.0468 18.421 -84.2259 4.6113 -81.735C46.8074 -88.6127 66.7822 -87.5184 77 -86.0238C75.8409 -85.979 74.6833 -85.9297 73.5271 -85.8759C64.2933 -87.3683 20.7475 -84.281 -1.86542 -79.2571C2.80991 -79.9222 22.8743 -83.1445 27.2021 -83.3162C28.42 -83.4012 24.2207 -82.6897 27.0403 -82.9014C34.3872 -83.7798 65.7218 -85.1292 61.1718 -84.4238C58.2035 -84.7707 8.11966 -79.6331 -1.461 -77.0571C21.2477 -80.8193 44.9143 -83.0804 67.9354 -83.0296C53.4599 -81.8937 40.6383 -80.6684 14.4668 -76.9691C6.45401 -76.0775 62.1829 -81.2425 63.4637 -80.1909C53.8789 -79.675 44.1525 -78.8272 34.6365 -77.6679C42.6991 -78.5219 50.9083 -79.1539 59.029 -79.5477C59.0558 -79.4755 59.0826 -79.4033 59.1094 -79.3311C37.9706 -78.0553 18.8877 -75.4282 -4.84946 -70.9201C-4.04144 -70.73 10.1951 -73.3497 17.1057 -74.2434ZM372.101 10.6296C371.936 10.0406 378.864 16.2453 382.667 19.8482C382.132 19.2681 381.595 18.6893 381.057 18.1117C389.329 25.647 403.675 40.7157 404.601 40.9129C410.086 46.7157 407.279 44.4995 408.97 46.438C409.634 47.1877 416.828 54.7329 421.826 61.4115C423.09 62.9339 424.342 64.4625 425.586 66.0007C425.985 66.17 426.385 66.3401 426.784 66.5108C428.319 68.8192 429.832 71.1404 431.322 73.4739C413.662 50.6997 393.81 29.6342 372.133 10.6579C372.122 10.6485 372.111 10.6391 372.101 10.6296ZM515.085 254.144C517.219 264.409 519.524 280.349 519.561 277.054C518.5 270.479 517.296 263.953 515.952 257.478C515.669 256.375 515.378 255.253 515.085 254.144ZM-157.924 727.698C-165.071 722.599 -172.114 718.666 -183.097 710.717C-183.15 710.822 -183.203 710.927 -183.256 711.032C-178.614 714.071 -166.629 722.482 -157.924 727.698ZM138.43 -94.1541C136.536 -94.4591 134.637 -94.7522 132.734 -95.0332C140.58 -94.6495 141.854 -94.037 150.636 -92.6771C151.164 -92.5931 151.005 -92.7649 151.189 -92.735C153.33 -92.386 155.274 -91.87 157.197 -91.5233C160.913 -90.8449 163.93 -90.4699 170.494 -89.0745C175.557 -87.9772 175.536 -87.6781 177.309 -87.284C178.817 -86.9882 193.921 -84.1065 203.291 -80.9249C221.346 -75.9318 144.445 -95.0989 138.43 -94.1541ZM83.0723 -98.8338C84.9327 -98.8115 86.7903 -98.7779 88.6452 -98.7328C83.0641 -98.4316 94.2985 -98.3046 102.538 -97.8127C102.218 -97.4862 84.8911 -98.4031 77 -98.1801C79.0242 -98.4115 81.0483 -98.6294 83.0723 -98.8338ZM305.814 -34.7505C299.572 -38.4232 300.846 -38.2176 301.188 -38.203C303.184 -37.0392 305.17 -35.8602 307.145 -34.6664C306.701 -34.6951 306.257 -34.7232 305.814 -34.7505ZM257.404 -59.7259C259.629 -59.1788 273.963 -52.6708 280.586 -49.1987C280.873 -49.0461 278.974 -49.832 283.659 -47.408C285.088 -46.7461 299.076 -39.7765 295.686 -40.7554C283.239 -47.6891 270.462 -54.0213 257.423 -59.7173C257.417 -59.7202 257.41 -59.723 257.404 -59.7259ZM242.846 -66.102C245.638 -65.0963 248.412 -64.0657 251.187 -63.0028C252.538 -62.2529 253.883 -61.4966 255.224 -60.7339C252.113 -62.0513 248.988 -63.3322 245.86 -64.5731C244.858 -65.0863 243.853 -65.5959 242.846 -66.102ZM-267.98 66.5562C-268.549 66.9816 -269.117 67.4087 -269.684 67.8374C-271.488 69.8223 -278.816 80.5759 -276.191 77.405C-273.509 73.7471 -270.772 70.1304 -267.98 66.5562ZM-230.613 26.5296C-228.607 24.7243 -226.585 22.9376 -224.548 21.1698C-222.471 18.8486 -220.369 16.5477 -218.241 14.267C-228.497 23.0418 -238.781 33.0989 -236.532 32.0672C-238.718 34.244 -240.882 36.4434 -243.023 38.665C-241.465 36.5582 -241.829 36.6849 -247.549 42.4072C-248.399 44.0354 -254.302 49.959 -260.448 57.2937C-255.892 52.0355 -251.215 46.8861 -246.418 41.8466C-246.355 41.9066 -246.291 41.9667 -246.227 42.0267C-256.78 53.3711 -243.402 39.5197 -236.437 32.2227C-235.792 31.7443 -235.145 31.2679 -234.498 30.7934C-233.212 29.3644 -231.917 27.9431 -230.613 26.5296ZM140.655 786.866C138.746 787.05 136.835 787.223 134.921 787.384C127.702 789.441 142.525 786.586 153.365 785.566C149.747 785.537 165.925 782.613 166.812 782.305C164.915 782.458 163.023 782.597 161.126 782.725C154.367 784.26 147.482 785.651 140.655 786.866ZM86.4176 790.503C89.4199 790.682 84.4415 791.003 77 791.081C67.9106 791.21 55.4491 790.711 49.3904 790.237C46.7195 790.049 42.0014 789.386 40.0866 789.263C38.916 789.283 37.7458 789.298 36.5758 789.309C35.2673 788.896 13.8843 786.963 5.54358 785.674C4.77963 785.403 4.01709 785.129 3.25595 784.854C0.207397 784.403 -2.83179 783.921 -5.86148 783.408C-5.45493 783.337 -5.04861 783.265 -4.64258 783.193C-6.95862 782.94 -9.27121 782.669 -11.5802 782.38C-20.5836 780.705 -14.8995 781.1 -21.659 779.858C-29.1599 778.419 -17.0711 781.673 -17.3462 781.893C-11.2412 783.188 2.59662 785.566 8.87155 786.464C12.4475 786.96 8.2803 787.082 23.8149 788.416C27.184 788.966 30.6096 789.483 33.9665 789.953C40.2081 790.317 46.4768 790.551 52.7701 790.655C53.9349 790.922 55.0833 791.183 56.237 791.44C56.89 791.56 71.3829 791.5 70.6173 791.287C72.2837 791.421 74.4524 791.527 77 791.592C83.4388 791.762 92.1992 791.639 101.257 791.16C102.477 790.984 103.695 790.802 104.911 790.616C92.6344 791.536 100.995 790.717 97.3361 790.691C95.2336 790.676 88.788 790.651 86.4176 790.503ZM-314.907 137.869C-305.364 119.602 -311.422 130.817 -299.893 111.773C-300.941 112.952 -301.984 114.138 -303.021 115.331C-308.415 124.873 -317.219 140.627 -314.917 137.888C-314.914 137.882 -314.91 137.875 -314.907 137.869ZM-170.664 -22.7727C-180.316 -15.974 -175.278 -19.0851 -187.277 -10.1954C-187.283 -10.1911 -187.289 -10.1869 -187.294 -10.1827C-181.076 -14.7546 -174.726 -19.1745 -168.278 -23.4169C-169.073 -23.2046 -169.869 -22.9899 -170.664 -22.7727ZM-297.449 586.961C-291.37 596.497 -292.432 594.522 -286.906 603.191C-277.592 615.32 -285.21 604.859 -284.834 604.596C-286.967 601.833 -289.07 599.042 -291.14 596.225C-295.507 588.969 -290.865 595.512 -290.827 595.485C-290.831 595.479 -290.835 595.473 -290.839 595.467C-290.725 595.391 -290.557 595.605 -292.289 592.868C-294.024 590.918 -295.744 588.948 -297.449 586.961ZM-268.706 625.839C-271.353 623 -272.795 621.91 -266.495 629.933C-266.491 629.939 -266.486 629.944 -266.482 629.95C-265.461 630.169 -259.585 637.997 -256.574 641.291C-255.746 642.12 -254.914 642.944 -254.08 643.766C-259.11 637.917 -263.991 631.933 -268.706 625.839ZM-138.998 734.453C-139.314 735.118 -146.835 731.006 -136.632 737.465C-134.569 738.582 -132.511 739.674 -130.436 740.754C-129.003 741.327 -127.567 741.893 -126.129 742.451C-99.9937 756.554 -91.4128 758.993 -136.337 736.926C-136.343 736.923 -136.35 736.92 -136.356 736.917C-137.241 736.099 -138.122 735.277 -138.998 734.453ZM-182.917 706.487C-183.449 706.581 -183.981 706.674 -184.514 706.766C-189.234 702.155 -196.583 697.819 -206.056 689.138C-207.025 688.489 -207.992 687.836 -208.956 687.178C-212.907 684.374 -246.727 651.628 -239.753 659.065C-236.83 662.448 -229.599 668.95 -228.985 669.514C-226.951 671.483 -224.482 674.256 -220.916 677.447C-218.858 679.294 -214.244 682.868 -209.936 686.505C-200.406 694.719 -182.716 709.617 -168.25 717.857C-167.32 718.613 -166.387 719.366 -165.45 720.116C-155.045 726.691 -158.326 724.205 -148.746 730.474C-141.302 733.413 -187.508 705.699 -177.201 710.483C-177.207 710.479 -177.212 710.475 -177.218 710.471C-179.128 709.158 -181.028 707.83 -182.917 706.487ZM-359.785 427.855C-359.649 427.087 -362.472 413.077 -361.138 416.263C-362.132 411.708 -363.049 407.173 -363.901 402.582C-363.969 402.627 -364.038 402.671 -364.107 402.715C-363.474 407.307 -362.775 411.85 -362 416.42C-362.113 416.456 -362.225 416.492 -362.338 416.527C-361.114 423.361 -355.339 451.52 -355.759 450.732C-355.231 452.187 -354.697 453.638 -354.155 455.084C-351.246 468.571 -347.417 479.788 -342.923 494.113C-342.402 495.161 -341.878 496.206 -341.349 497.248C-341.204 497.998 -341.057 498.748 -340.908 499.497C-339.045 504.646 -337.086 509.757 -335.039 514.819C-327.84 531.085 -340.403 498.883 -341.546 494.858C-341.738 494.337 -342.005 494.524 -343.184 491.251C-345.601 485.516 -354.912 452.203 -356.998 441.699C-356.822 441.566 -356.645 441.433 -356.468 441.3C-357.648 436.815 -358.749 432.357 -359.785 427.855ZM-79.4676 762.968C-78.8074 763.435 -78.1453 763.9 -77.4814 764.364C-64.7667 768.838 -56.6537 771.436 -59.7562 769.765C-59.7629 769.763 -59.7697 769.76 -59.7765 769.758C-66.4081 767.645 -72.9414 765.392 -79.4676 762.968ZM498.497 205.554C498.217 206.013 500.164 212.191 502.807 220.058C502.805 219.641 502.804 219.223 502.801 218.805C501.201 214.785 500.278 209.339 495.721 196.754C495.529 196.823 495.337 196.892 495.144 196.961C496.29 199.809 497.408 202.674 498.497 205.554ZM-90.2677 758.645C-93.9785 756.917 -104.863 752.979 -97.8989 756.03C-92.567 758.343 -88.274 759.586 -90.2677 758.645ZM-130.647 -46.2408C-133.358 -44.8546 -136.057 -43.4396 -138.746 -41.9935C-140.051 -41.0691 -141.35 -40.1385 -142.643 -39.2015C-142.637 -39.2051 -142.631 -39.2086 -142.624 -39.2121C-138.671 -41.616 -134.669 -43.9643 -130.647 -46.2408ZM-316.929 553.577C-312.102 562.709 -306.943 571.694 -301.488 580.47C-301.337 580.498 -301.187 580.526 -301.036 580.554C-306.819 571.952 -308.433 568.074 -309.615 565.971C-309.61 565.981 -309.605 565.99 -309.599 565.999C-313.35 559.207 -316.756 552.675 -319.927 546.064C-318.951 548.577 -317.952 551.081 -316.929 553.577ZM-331.49 521.285C-331.5 523.174 -330.881 525.437 -323.573 539.52C-323.757 538.912 -323.939 538.303 -324.119 537.695C-327.695 530.307 -329.753 525.962 -328.796 527.119C-329.707 525.182 -330.605 523.238 -331.49 521.285ZM-242.758 655.419C-243.946 653.92 -254.376 642.988 -253.886 643.649C-253.787 643.991 -240.587 658.487 -242.758 655.419ZM448.193 102.74C450.06 105.678 451.893 108.639 453.692 111.622C451.159 107.742 448.569 103.904 445.921 100.112C446.681 100.985 447.438 101.861 448.193 102.74ZM424.909 72.4697C423.43 70.4788 429.093 76.2831 419.892 64.6471C426.769 72.965 433.353 81.545 439.61 90.3422C436.584 86.2766 433.497 82.2731 430.335 78.313C430.705 79.1412 431.073 79.9701 431.438 80.7996C429.294 77.9961 427.118 75.2193 424.909 72.4697ZM418.028 63.151C421.441 67.8529 401.427 44.7752 399.315 42.8434C398.894 42.3702 397.115 39.9001 396.405 39.0392C399.612 42.3635 402.767 45.7382 405.869 49.1608C404.929 47.928 403.98 46.6988 403.026 45.4746C406.734 49.4169 410.369 53.4233 413.932 57.4984C412.324 55.8294 410.703 54.1738 409.071 52.532C412.111 56.0246 415.097 59.5648 418.028 63.151ZM482.787 166.967C481.227 163.423 479.623 159.904 477.974 156.409C478.122 157.194 478.267 157.979 478.41 158.764C479.392 160.856 480.358 162.956 481.309 165.065C481.803 165.697 482.296 166.331 482.787 166.967ZM444.329 98.3C448.336 102.402 454.848 116.451 445.719 101.027C444.785 99.483 443.951 97.9126 444.329 98.3ZM391.432 34.5358C382.393 26.5985 385.462 27.3303 393.154 35.7034C393.537 36.1273 392.106 35.1371 391.432 34.5358ZM321.918 -22.5108C321.103 -23.0384 320.007 -24.475 311.881 -29.0198C310.612 -29.8836 309.337 -30.7411 308.057 -31.5923C311.406 -30.161 336.945 -13.0555 333.082 -14.9446C329.242 -17.6526 325.951 -19.8099 321.918 -22.5108ZM344.961 -3.74043C348.615 -0.962906 352.224 1.87041 355.788 4.75831C354.717 3.67788 353.64 2.60224 352.557 1.5316C354.35 2.90729 356.132 4.29678 357.904 5.69965C360.71 8.37112 363.478 11.077 366.208 13.8153C358.651 7.30882 350.883 1.06425 342.906 -4.91743C343.592 -4.52702 344.277 -4.13469 344.961 -3.74043ZM430.183 82.9219C425.043 75.7417 418.229 67.3446 408.825 56.5373C408.82 56.5317 408.816 56.526 408.812 56.5204C408.343 55.982 407.674 54.8823 406.149 53.1599C405.154 51.3967 377.79 24.0325 380.001 26.0781C391.092 36.1676 394.485 40.6847 397.591 42.6935C397.967 43.3444 398.342 43.996 398.714 44.6482C408.309 55.3996 411.358 58.1837 416.758 64.2368C416.636 64.2971 416.514 64.3573 416.392 64.4175C419.843 68.5791 423.215 72.7997 426.513 77.0848C426.115 76.4286 425.716 75.7734 425.315 75.119C426.493 76.6266 427.662 78.1421 428.821 79.6653C431.337 83.6152 434.745 88.4162 430.183 82.9219ZM328.268 -16.1722C324.443 -18.0907 289.854 -40.7575 272.549 -48.4448C281.724 -44.6287 295.037 -36.9071 304.254 -31.291C322.03 -20.3022 309.937 -28.2052 313.039 -26.477C314.59 -25.6323 324.147 -18.6147 328.268 -16.1722ZM448.685 109.292C443.11 100.498 439.602 95.83 434.637 88.3051C435.139 88.873 435.64 89.4425 436.139 90.0134C438.047 92.4576 451.738 113.574 448.685 109.292ZM247.502 -60.1747C265.834 -51.8527 257.1 -56.618 266.306 -51.6202C260.081 -54.534 253.768 -57.3101 247.4 -59.9327C247.434 -60.0134 247.468 -60.094 247.502 -60.1747ZM-109.899 745.936C-117.55 742.339 -125.887 737.848 -130.511 735.788C-125.471 738.55 -120.371 741.217 -115.211 743.786C-113.438 744.517 -111.674 745.231 -109.899 745.936ZM124.86 781.153C122.922 781.292 115.445 782.271 114.643 782.323C113.167 782.448 113.559 782.282 113.535 782.25C103.857 783.02 112.827 782.765 105.651 783.354C104.389 783.518 87.5787 784.115 80.6638 784.092C79.4402 784.105 78.2155 784.112 77 784.114C67.6731 784.138 59.0453 783.764 55.5743 783.597C48.8766 783.308 36.5604 782.755 25.6277 781.463C21.1314 780.933 19.5988 780.488 15.1093 779.867C-13.928 776.781 -69.563 761.256 -93.0234 750.165C-98.9136 747.641 -104.33 744.822 -107.399 743.418C-109.863 742.399 -112.309 741.362 -114.765 740.293C-121.655 735.714 -124.507 735.312 -132.331 731.192C-137.295 728.546 -139.407 726.949 -140.063 726.579C-144.4 724.093 -146.591 722.957 -149.96 720.944C-153.752 718.684 -159.018 715.159 -160.35 714.318C-161.143 713.76 -158.903 715.999 -173.024 706.314C-187.323 696.329 -200.848 685.612 -214.08 673.799C-210.491 678.673 -206.052 681.37 -200.428 685.931C-198.915 687.151 -199.997 686.527 -198.677 687.588C-194.963 690.599 -187.602 696.049 -184.443 698.433C-181.042 701.014 -182.498 700.533 -178 703.566C-177.772 703.719 -178.366 703.059 -177.31 703.775C-166.644 710.887 -163.402 713.556 -149.592 722.056C-141.041 728.812 -81.9414 756.435 -79.4632 756.3C-69.1115 761.905 -132.229 734.48 -138.562 729.163C-141.001 727.757 -138.332 729.034 -140.539 727.728C-141.478 727.178 -150.148 722.663 -158.321 717.475C-168.289 711.366 -187.25 697.467 -195.873 690.421C-270.89 630.928 -324.819 547.428 -348.126 454.69C-348.617 452.717 -349.527 450.187 -350.997 443.703C-358.077 412.26 -361.683 379.719 -361.658 347C-362.009 253.774 -330.703 159.587 -274.937 85.194C-258.601 63.2389 -240.517 42.8034 -220.07 24.2104C-217.666 21.7582 -215.235 19.3346 -212.773 16.9371C-219.33 22.767 -231.199 33.6398 -232.209 34.7073C-232.583 35.0799 -234.821 37.5516 -238.564 41.3975C-243.817 46.8165 -246.153 49.1686 -246.579 49.6187C-247.878 51.0339 -246.894 50.2288 -248.13 51.5836C-257.312 61.7122 -264.029 69.9011 -271.687 79.8406C-280.27 91.1143 -284.623 96.8668 -290.024 105.665C-290.789 106.56 -291.55 107.459 -292.308 108.362C-296.457 114.9 -319.157 154.853 -325.961 172.223C-328.297 177.617 -328.108 176.572 -328.873 178.389C-329.313 179.572 -329.006 179.145 -334.536 193.485C-337.252 200.726 -338.106 202.559 -339.355 206.234C-340.022 208.234 -339.687 207.984 -340.63 210.862C-346.009 227.515 -349.723 241.309 -353.266 258.114C-354.236 262.821 -354.425 262.838 -354.63 263.895C-355.358 267.781 -356.307 274.673 -357.73 284.633C-360.336 300.792 -362.412 332.92 -362.287 347C-362.289 347.246 -362.292 347.486 -362.294 347.72C-362.316 349.726 -362.543 351.388 -362.521 352.861C-362.484 355.091 -362.209 355.958 -362.201 356.349C-362.009 363.779 -362.366 359.318 -362.138 364.284C-361.998 366.957 -361.61 369.723 -361.179 375.97C-360.567 384.19 -360.994 382.592 -360.676 386.015C-360.637 386.375 -360.4 386.465 -360.072 389.817C-358.882 402.612 -356.085 421.004 -353.657 432.869C-352.98 436.263 -352.61 438.868 -351.554 443.613C-350.366 453.408 -333.239 506.438 -330.8 510.421C-330.625 510.87 -332.813 506.413 -329.839 513.722C-328.834 515.787 -327.816 517.834 -326.776 519.89C-325.479 523.51 -324.135 527.111 -322.744 530.694C-322.187 530.29 -312.136 550.453 -312.854 550.578C-311.739 552.782 -310.607 554.972 -309.454 557.157C-306.471 561.392 -305.031 564.516 -299.657 572.865C-299.011 574.28 -298.356 575.694 -297.693 577.107C-297.389 577.378 -297.084 577.649 -296.78 577.918C-294.545 582.78 -289.235 589.709 -288.636 590.571C-286.374 593.934 -284.765 596.54 -283.671 598.099C-279.638 603.964 -270.252 616.171 -265.065 622.656C-264.824 622.962 -265.28 622.836 -263.813 624.691C-261.155 628.025 -260.594 628.099 -257.263 632.732C-256.427 633.529 -255.589 634.323 -254.747 635.113C-253.994 636.072 -253.236 637.028 -252.474 637.981C-247.689 643.348 -242.77 648.602 -237.729 653.729C-242.602 649.337 -237.595 654.981 -232.271 659.73C-230.47 661.334 -231.795 659.635 -231.194 660.168C-230.565 661.106 -206.81 682.944 -205.088 684.234C-203.859 685.148 -202.626 686.056 -201.39 686.955C-200.905 687.581 -200.417 688.205 -199.928 688.829C-199.234 689.312 -198.539 689.794 -197.843 690.273C-191.566 695.905 -173.488 708.148 -170.184 710.311C-168.443 711.509 -170.486 711.132 -161.965 716.619C-161.558 716.637 -161.151 716.655 -160.744 716.672C-158.78 717.902 -156.806 719.118 -154.822 720.317C-151.142 722.645 -145.887 726.174 -145.83 726.484C-144.584 727.047 -143.335 727.605 -142.084 728.156C-139.206 730.484 -121.988 739.612 -114.743 742.653C-112.741 743.784 -110.743 744.895 -108.727 745.994C-105.864 747.136 -102.989 748.247 -100.101 749.329C-93.5419 752.135 -100.567 749.39 -99.1831 750.019C-96.2704 751.445 -80.9308 757.116 -82.1289 757.243C-80.0443 758.054 -77.9519 758.849 -75.852 759.629C-74.7104 759.865 -73.5717 760.096 -72.4357 760.321C-69.039 762.163 -62.7354 764.3 -49.7684 768.46C-48.6362 768.655 -47.5031 768.846 -46.3692 769.032C-42.3885 770.399 -38.3784 771.712 -34.3394 772.968C-33.4411 772.965 -32.5459 772.958 -31.6555 772.947C-29.8796 773.365 -28.0996 773.772 -26.316 774.167C-22.83 775.55 -16.1822 776.466 -12.8864 777.355C-8.08139 778.636 -11.9356 778.321 -20.9641 776.367C-20.4014 777.076 6.59631 782.21 12.921 782.853C12.5186 782.72 12.1162 782.587 11.7145 782.453C5.3006 781.558 -1.12305 780.516 -7.47458 779.341C-12.615 777.395 4.57434 780.991 12.5978 781.939C13.3292 782.025 17.4825 782.321 25.5501 783.306C28.6895 783.734 40.8133 785.406 43.1607 785.569C62.0704 787.008 48.1893 785.568 66.6445 786.879C63.7024 786.411 69.2249 786.767 77 786.819C79.3782 786.834 81.9579 786.82 84.555 786.753C86.472 786.779 102.334 785.748 103.447 785.601C110.167 785.1 102.887 786.063 112.588 785.226C113.744 785.017 114.897 784.803 116.049 784.585C118.301 784.386 120.535 784.172 122.792 783.938C136.621 783.486 139.65 782.126 144.456 781.327C146.407 780.98 143.933 781.657 148.992 780.78C150.894 780.44 152.973 779.88 158.062 778.921C173.945 775.797 179.568 775.443 193.734 770.616C195.981 770.148 198.224 769.664 200.462 769.162C201.896 768.562 203.325 767.954 204.749 767.34C216.18 764.322 211.951 765.059 216.009 763.748C226.749 760.379 248.188 751.849 250.161 751.327C258.751 746.638 269.645 742.581 273.077 740.802C275.068 739.679 277.047 738.541 279.016 737.389C281.448 736.26 283.869 735.109 286.279 733.935C284.703 733.767 297.279 727.819 298.411 727.107C299.801 726.441 317.862 715.02 324.336 710.422C330.938 706.005 342.183 697.966 343.135 697.193C344.269 696.362 354.801 687.904 362.791 680.992C370.457 675.685 408.991 636.716 405.891 638.562C403.431 641.165 399.928 644.867 396.866 648.034C388.656 659.241 326.988 710.835 308.334 719.931C273.41 741.565 233.803 758.993 193.994 769.817C191.65 770.456 191.229 770.315 189.212 770.845C186.14 771.669 178.453 773.815 175.4 774.489C164.018 777.126 150.134 779.521 143.923 780.43C130.211 782.488 120.617 783.303 110.157 784.086C106.853 784.38 90.276 785.653 78.7856 785.486C78.1906 785.469 77.5954 785.45 77 785.43C75.5132 785.381 74.0286 785.325 72.5464 785.261C73.7051 785.257 75.2341 785.247 77 785.224C84.244 785.16 95.2926 784.682 101.027 784.324C111.706 783.693 117.223 783.317 121.125 782.938C124.443 782.677 141.089 780.412 148.656 779.065C151.007 778.673 151.532 778.842 153.539 778.49C164.401 776.615 178.666 773.433 187.835 770.739C184.106 771.917 207.676 765.492 208.846 764.94C210.945 764.275 213.148 763.328 217.395 761.895C225.538 759.083 224.679 759.965 234.595 755.671C237.137 754.846 239.67 753.999 242.194 753.129C242.169 752.713 273.38 739.799 281.311 734.25C281.717 734.496 241.967 752.858 238.41 753.643C218.336 761.78 187.588 771.135 166.933 775.1C160.786 776.487 141.047 779.36 139.594 779.472C137.209 779.823 139.398 779.747 138.368 779.901C117.183 782.805 127.691 780.918 124.86 781.153ZM415.612 65.191C419.782 70.2386 423.837 75.3752 427.78 80.6042C427.375 80.3146 426.971 80.0258 426.566 79.7379C424.789 77.3243 422.988 74.9289 421.164 72.5521C419.658 70.8068 418.139 69.074 416.608 67.3541C416.279 66.6329 415.946 65.9116 415.612 65.191ZM404.604 53.3948C400.756 49.2336 400.773 48.8387 399.9 47.8637C397.276 44.9675 394.856 42.6047 392.214 39.8857C395.805 42.4846 401.938 49.527 404.604 53.3948ZM470.141 149.98C469.599 148.824 466.478 140.828 461.081 132.705C457.738 126.247 454.247 119.893 450.58 113.596C456.901 124.208 465.466 139.006 468.182 144.406C469.233 146.448 469.216 146.95 470.042 148.588C474.825 158.038 479.496 167.192 479.2 168.514C475.363 159.275 470.835 151.456 470.141 149.98ZM437.746 95.1288C436.914 93.6468 436.073 92.169 435.224 90.6955C438.786 95.6652 442.251 100.718 445.601 105.827C444.552 104.538 443.497 103.255 442.435 101.98C440.895 99.6837 439.33 97.3969 437.746 95.1288ZM471.042 541.606C472.716 538.227 474.34 534.84 475.923 531.428C475.729 531.566 473.905 535.461 473.14 536.849C473.143 536.842 473.146 536.836 473.149 536.83C472.299 538.378 472.49 537.635 471.015 540.489C471.024 540.861 471.033 541.234 471.042 541.606ZM-208.991 14.3438C-204.844 9.43045 -157.669 -24.623 -161.643 -21.6764C-163.918 -20.5965 -180.249 -9.16441 -184.878 -5.56123C-191.324 -0.964951 -208.176 12.2313 -208.991 14.3438ZM-123.756 -43.0582C-123.212 -44.2104 -154.947 -26.4108 -157.716 -24.0928C-157.044 -24.4439 -155.984 -24.9451 -155.114 -25.4508C-150.951 -28.0538 -130.85 -39.7354 -123.756 -43.0582ZM335.977 700.392C338.467 698.843 340.946 697.266 343.411 695.662C342.621 695.899 341.83 696.133 341.04 696.365C339.361 697.721 337.674 699.062 335.977 700.392ZM70.1845 785.367C21.4526 784.639 -27.27 775.745 -73.0679 759.017C-69.004 760.368 -64.9161 761.661 -60.805 762.894C-20.9787 776.281 23.6693 783.971 64.1724 784.806C66.1712 785.007 68.1753 785.194 70.1845 785.367ZM474.936 162.948C480.163 174.304 484.39 183.851 488.767 196.755C483.952 184.703 482.008 178.605 476.436 167.284C476.433 167.277 476.43 167.271 476.427 167.264C475.938 165.823 475.441 164.384 474.936 162.948ZM506.304 435.505C506.864 431.754 507.376 427.995 507.84 424.223C507.039 428.723 506.176 433.166 505.232 437.649C505.591 436.936 505.948 436.221 506.304 435.505ZM-287.674 588.392C-295.568 577.935 -311.312 548.484 -316.158 539.049C-316.484 538.444 -313.943 544.231 -318.778 535.233C-315.38 542.155 -312.773 546.942 -312.209 547.294C-311.265 549.38 -310.305 551.458 -309.329 553.529C-307.462 556.826 -305.542 560.118 -303.587 563.37C-304.083 563.178 -303.945 563.45 -300.802 568.365C-299.53 570.702 -298.241 573.022 -296.925 575.339C-296.212 576.225 -295.496 577.108 -294.777 577.988C-293.733 580.049 -292.672 582.104 -291.595 584.15C-286.509 591.551 -289.163 586.751 -287.674 588.392ZM-260.575 625.106C-262.618 624.017 -297.73 574.721 -282.511 597.648C-278.392 603.505 -274.139 609.252 -269.739 614.903C-272.498 609.551 -261.27 625.495 -260.173 626.681C-255.376 632.664 -248.698 639.795 -244.927 643.875C-241.692 647.393 -239.875 649.585 -237.533 651.998C-229.619 660.286 -216.289 672.547 -214.08 673.799C-220.713 667.874 -227.277 661.657 -233.797 655.097C-240.653 648.114 -246.364 641.698 -258.693 628.057C-261.556 624.524 -260.239 625.539 -260.575 625.106ZM509.745 412.939C510.276 413.51 513.048 390.525 512.733 390.349C512.645 390.275 511.849 397.795 511.664 398.851C511.664 398.858 511.663 398.865 511.662 398.872C511.59 399.314 511.683 397.036 511.211 400.542C510.78 404.69 510.291 408.823 509.745 412.939ZM-270.22 80.5829C-269.193 77.3469 -220.982 24.8127 -218.525 24.2772C-218.128 23.8659 -218.793 24.3178 -218.673 24.1163C-230.77 35.5453 -247.448 52.3476 -257.591 64.4823C-260.434 67.8488 -259.437 66.9656 -259.596 67.1576C-259.603 67.1657 -259.61 67.1738 -259.616 67.1818C-261.242 69.0764 -268.664 77.5934 -270.22 80.5829ZM-325.849 518.373C-324.727 521.196 -323.576 524.006 -322.396 526.802C-321.946 527.444 -321.495 528.084 -321.043 528.722C-321.046 528.716 -321.049 528.709 -321.052 528.703C-322.694 525.285 -324.293 521.841 -325.849 518.373ZM-354.515 417.64C-354.498 418.386 -354.479 419.131 -354.458 419.877C-353.206 427.426 -351.772 434.867 -350.123 442.355C-350.346 441.616 -350.568 440.876 -350.788 440.135C-348.453 451.468 -346.855 455.949 -345.314 461.927C-345.316 461.92 -345.318 461.914 -345.319 461.907C-345.151 462.548 -345.151 463.379 -344.493 465.753C-343.069 471.211 -338.222 486.66 -337.32 488.418C-335.75 492.242 -345.749 461.305 -346.899 455.297C-347.567 452.646 -348.159 449.402 -348.535 447.78C-348.948 446.002 -349.766 443.639 -350.698 439.277C-351.024 437.981 -353.538 423.827 -354.515 417.64ZM-355.922 283.486C-356.496 285.772 -356.925 290.669 -357.178 292.458C-357.24 292.885 -357.019 289.529 -357.577 293.562C-357.585 294.721 -357.588 295.881 -357.587 297.041C-357.101 292.502 -356.546 287.983 -355.922 283.486ZM513.615 374.361C513.567 375.035 512.629 387.388 512.563 387.97C512.382 395.408 514.396 369.816 513.615 374.361ZM424.259 81.7152C428.03 85.9641 384.378 34.4292 378.599 30.8571C379.147 30.7581 390.301 42.3536 384.694 36.0436C390.32 41.7944 405.49 58.0353 408.729 62.1524C410.758 64.5952 411.012 65.4282 411.314 65.8002C412.559 67.2109 423.272 79.9336 424.259 81.7152ZM336.032 -5.22842C341.158 -1.36146 346.206 2.62375 351.155 6.7103C345.234 1.98959 339.18 -2.58542 333.026 -6.98975C334.03 -6.40679 335.032 -5.81964 336.032 -5.22842ZM329.383 -9.81624C329.396 -9.4854 311.531 -21.9477 306.519 -24.7584C312.364 -21.909 321.082 -15.5516 329.383 -9.81624ZM510.106 292.38C511.053 302.376 512.609 306.579 510.761 294.464C510.702 294.096 510.068 291.962 510.106 292.38ZM-288.035 584.924C-289.076 583.559 -299.855 565.272 -300.514 564.239C-302.975 561.176 -295.783 573.096 -293.438 577.154C-289.691 583.705 -296.02 574.592 -285.738 589.868C-286.254 589.308 -286.77 588.747 -287.284 588.183C-281.303 597.161 -282.571 593.751 -281.401 595.292C-281.048 595.767 -277.217 601.304 -276.452 602.249C-267.055 614.163 -287.438 586.43 -288.035 584.924ZM471.293 534.27C462.155 552.034 466.595 544.637 456.672 562.584C456.759 563.412 470.621 536.834 471.293 534.27ZM-150.144 719.395C-167.793 708.667 -181.431 698.537 -196.728 686.843C-196.795 689.01 -146.123 723.071 -150.144 719.395ZM-80.9098 -58.9188C-156.477 -31.7296 -232.996 27.2201 -281.244 97.9899C-286.543 105.663 -287.203 106.289 -289.036 109.122C-290.223 110.986 -289.829 110.78 -291.408 113.255C-336.715 184.465 -359.136 266.142 -359.02 347C-359.016 367.969 -357.554 388.752 -354.617 409.44C-354.018 415.81 -348.508 446.527 -345.91 452.722C-344.236 457.489 -349.816 435.847 -350.378 432.155C-350.914 429.416 -350.68 429.25 -351.024 427.42C-351.383 425.476 -351.261 427.115 -351.674 424.856C-353.431 415.252 -354.859 404.766 -355.846 395.992C-357.7 379.669 -358.617 363.362 -358.634 347C-358.724 277.629 -342.336 209.359 -310.408 147.541C-305.595 138.331 -306.355 140.352 -306.123 139.883C-306.12 139.877 -306.117 139.87 -306.114 139.864C-279.865 90.7337 -238.865 40.4131 -192.055 4.26769C-159.278 -21.329 -122.837 -42.2051 -84.2132 -57.4528C-83.1147 -57.9458 -82.0136 -58.4345 -80.9098 -58.9188ZM-262.714 620.96C-265.309 616.391 -266.888 616.138 -277.605 600.891C-278.596 599.736 -279.581 598.576 -280.561 597.41C-274.873 605.466 -268.912 613.332 -262.694 620.984C-262.701 620.976 -262.708 620.968 -262.714 620.96ZM-325.384 515.482C-326 512.349 -341.211 473.571 -345.087 455.136C-346.581 451.981 -339.132 478.185 -336.911 484.259C-335.98 487.321 -330.832 503.784 -325.414 515.687C-325.404 515.619 -325.394 515.551 -325.384 515.482ZM461.151 141.803C462.605 144.454 464.032 147.123 465.432 149.808C462.102 143.004 458.592 136.287 454.905 129.656C460.886 140.183 466.414 150.935 471.491 161.911C470.337 159.967 469.171 158.037 467.985 156.107C465.793 151.295 463.514 146.526 461.151 141.803ZM478.171 177.116C469.594 157.733 479.117 177.74 480.775 182.753C481.822 185.738 479.037 179.092 478.171 177.116ZM496.017 229.116C493.12 219.702 486.651 200.845 489.643 207.312C492.675 217.565 495.063 223.981 498.766 239.032C498.067 236.885 497.348 234.728 496.615 232.589C496.612 232.579 496.609 232.569 496.606 232.559C496.414 231.411 496.218 230.263 496.017 229.116ZM473.874 168.438C468.712 155.568 484.523 192.44 479.283 180.965C479.09 180.418 474.122 168.921 473.874 168.438ZM-159.208 -17.923C-157.956 -19.053 -166.846 -13.2146 -169.754 -11.1795C-182.469 -2.56347 -197.969 9.62147 -209.95 20.1821C-208.992 19.45 -208.032 18.722 -207.07 17.9982C-191.961 4.94784 -175.958 -7.06517 -159.208 -17.923ZM-245.51 55.2186C-252.872 63.3499 -259.931 71.7625 -266.66 80.4252C-267.292 81.2295 -270.036 85.1683 -267.826 82.3693C-260.758 73.027 -253.31 63.9662 -245.51 55.2186ZM-213.969 670.244C-220.153 664.557 -201.578 680.068 -202.811 679.842C-206.584 676.705 -210.304 673.505 -213.969 670.244ZM-151.28 716.895C-155.805 714.182 -160.278 711.388 -164.697 708.515C-164.653 708.438 -164.61 708.361 -164.567 708.284C-160.194 711.232 -155.765 714.103 -151.28 716.895ZM-121.864 -39.3913C-126.976 -37.1438 -138.664 -30.6973 -145.765 -26.3985C-140.755 -29.1499 -128.918 -35.9618 -121.864 -39.3913ZM-293.99 573.494C-294.054 574.332 -310.378 545.123 -304.417 555.065C-301.088 561.298 -297.614 567.438 -293.99 573.494ZM-324.479 512.917C-321.704 519.512 -319.46 524.61 -320.363 523.393C-321.895 519.913 -323.388 516.397 -324.822 512.89C-324.708 512.899 -324.594 512.908 -324.479 512.917ZM503.98 265.77C506.255 277.648 508.026 289.569 509.307 301.635C509.173 301.197 509.038 300.759 508.903 300.321C507.634 288.709 505.908 277.219 503.715 265.777C503.803 265.775 503.892 265.772 503.98 265.77ZM-115.415 -41.7676C-108.008 -45.5045 -100.532 -49.0109 -92.9143 -52.3194C-100.584 -49.1153 -108.118 -45.7104 -115.589 -42.0714C-115.537 -41.9666 -115.485 -41.8618 -115.433 -41.757C-115.427 -41.7605 -115.421 -41.7641 -115.415 -41.7676ZM442.221 113.521C461.148 145.084 436.484 105.152 430.924 97.1759C430.917 97.1677 430.911 97.1595 430.905 97.1513C430.457 96.4263 431.706 97.7458 430.973 96.5299C433.046 99.655 435.08 102.811 437.069 105.985C439.091 108.739 441.082 111.521 443.042 114.328C443.6 115.308 444.153 116.291 444.702 117.276C443.881 116.019 443.054 114.768 442.221 113.521ZM342.323 4.54532C315.568 -15.4123 343.699 4.04485 355.886 15.2722C355.749 15.2452 344.791 6.38242 342.323 4.54532ZM405.691 64.6128C409.166 68.5631 412.569 72.5775 415.897 76.6506C416.259 77.2216 416.62 77.7934 416.978 78.3658C414.416 75.245 411.814 72.165 409.165 69.1162C408.017 67.6078 406.859 66.1066 405.691 64.6128ZM488.612 214.841C491.012 222.93 495.205 232.94 486.625 207.173C486.546 207.215 486.468 207.256 486.389 207.297C486.754 208.314 487.836 211.299 487.882 211.467C488.015 211.947 487.562 211.478 488.612 214.841ZM289.838 -27.7213C288.989 -28.1435 288.136 -27.6657 279.952 -33.1766C277.308 -34.5249 274.648 -35.8465 271.974 -37.1408C271.383 -37.671 270.789 -38.1999 270.194 -38.7276C280.387 -33.3785 281.588 -33.0547 282.339 -32.6885C285.721 -30.8894 283.131 -32.0618 285.296 -30.8686C290.916 -27.8359 303.39 -20.4951 297.447 -23.3467C295.314 -24.3778 290.681 -27.2891 289.838 -27.7213ZM308.795 -15.6487C307.664 -16.4676 311.587 -14.2671 310.743 -14.9005C310.04 -15.5027 298.396 -23.0494 301.824 -21.4605C303.761 -20.2538 305.687 -19.0322 307.602 -17.7959C308.188 -17.2763 308.771 -16.7555 309.353 -16.2332C311.272 -15.141 313.182 -14.034 315.085 -12.9122C318.015 -10.6071 324.309 -5.81495 316.405 -10.8729C319.281 -8.97704 322.142 -7.04178 324.973 -5.07587C326.518 -4.16756 328.058 -3.24925 329.593 -2.32113C328.701 -2.68725 327.809 -3.05017 326.917 -3.40977C320.979 -7.64275 314.935 -11.7245 308.795 -15.6487ZM212.686 -61.6103C213.122 -61.5891 213.557 -61.5673 213.992 -61.5447C201.92 -65.484 182.864 -70.4363 193.864 -68.194C210.383 -63.6186 226.7 -58.0217 242.571 -51.4841C243.59 -50.9649 244.601 -50.4444 245.62 -49.9153C233.929 -55.1439 237.064 -52.3142 226.805 -56.6628C225.066 -57.36 230.36 -56.0334 219.159 -59.6856C219.516 -59.4363 219.873 -59.1866 220.229 -58.9364C217.726 -59.8503 215.212 -60.7417 212.686 -61.6103ZM106.221 -82.6312C127.807 -80.7659 104.017 -82.3088 99.9952 -82.7621C100.002 -82.7618 100.009 -82.7614 100.016 -82.761C89.1 -84.3084 112.693 -82.5655 114.098 -82.2995C115.997 -82.1291 120.509 -82.5152 130.753 -80.2422C122.572 -81.2747 114.435 -82.0662 106.221 -82.6312ZM176.093 -71.9726C174.317 -72.3658 175.337 -72.3077 174.571 -72.4834C174.564 -72.485 174.557 -72.4866 174.551 -72.4881C163.243 -75.3425 136.009 -79.5794 133.097 -80.3407C141.658 -79.7749 179.497 -72.2959 181.534 -70.9708C179.724 -71.3162 177.91 -71.6502 176.093 -71.9726ZM253.438 -46.1928C259.788 -42.9313 245.129 -49.4814 241.288 -51.1622C240.562 -51.4972 246.851 -49.5798 253.438 -46.1928ZM503.854 398.49C502.109 414.05 504.916 393.668 504.371 400.779C504.712 397.803 505.023 394.818 505.302 391.825C504.837 394.056 504.354 396.277 503.854 398.49ZM-11.9219 766.983C-15.4837 766.184 -13.8362 766.749 -14.147 766.686C-16.49 766.175 -18.6524 765.505 -19.551 765.317C-36.1198 761.701 -25.2022 764.506 -25.047 764.6C-24.7463 764.887 -29.1469 764.073 -23.1877 765.762C-19.514 766.561 -15.8242 767.313 -12.1187 768.018C-10.3074 768.518 -8.50626 769.004 -6.70169 769.478C0.669373 770.649 -8.90292 768.738 -9.91095 768.17C-10.3005 767.957 -3.40411 769.21 -11.9219 766.983ZM498.936 426.074C498.842 428.628 498.087 434.806 499.625 428.895C499.626 428.888 499.628 428.882 499.629 428.875C499.915 427.782 500.787 423.264 501.118 421.884C502.299 411.83 501.244 415.616 498.936 426.074ZM54.7914 774.98C60.7907 775.372 66.821 775.641 72.8884 775.784C72.7831 776.004 72.6776 776.224 72.5721 776.443C69.3214 776.351 66.0806 776.222 62.8504 776.058C61.7137 776.122 60.5777 776.182 59.4417 776.237C63.4391 776.65 67.4579 777.008 71.4972 777.31C73.3291 777.3 75.1634 777.278 77 777.245C80.0472 777.19 83.0858 777.104 86.1154 776.986C83.8803 776.916 81.6428 776.829 79.403 776.724C91.2871 776.448 88.7102 777.022 98.4993 776.817C101.852 776.447 105.215 776.038 108.55 775.591C113.425 775.443 118.249 775.218 123.127 774.905C131.273 773.907 131.95 773.624 126.455 774.047C130.468 773.318 134.933 773.174 139.747 772.36C140.144 772.293 139.357 772.153 139.709 772.098C164.689 767.987 163.341 768.348 167.353 767.658C170.173 767.12 181.142 764.064 181.264 763.843C181.403 763.512 158.387 768.704 194.14 759.341C175.637 764.113 154.353 768.65 168.328 766.646C162.431 768.084 136.087 772.67 134.384 772.675C131.918 772.962 132.743 772.545 129.655 772.92C127.835 773.101 123.047 774.578 108.512 775.064C106.665 775.316 104.813 775.555 102.957 775.783C101.209 775.791 99.4366 775.789 97.7098 775.775C101.268 775.263 104.858 774.704 108.401 774.104C95.8634 775.339 85.3331 775.058 77 775.341C75.8894 775.379 74.8222 775.426 73.7989 775.488C66.3001 775.353 62.6945 775.122 65.9041 774.921C63.6636 774.864 61.4279 774.79 59.1964 774.698C57.7278 774.8 56.2622 774.894 54.7914 774.98ZM488.629 470.805C486.155 477.804 485.968 480.587 486.378 479.494C488.623 473.319 489.895 467.152 488.629 470.805ZM1.24579 769.94C9.31671 771.569 17.39 772.959 25.5401 774.122C25.5677 773.89 25.5954 773.658 25.623 773.426C17.4585 772.497 9.35757 771.339 1.24579 769.94ZM503.598 396.154C503.857 395.422 504.115 394.689 504.371 393.954C504.719 384.946 506.243 376.14 506.299 371.651C506.311 370.681 505.897 372.618 505.714 374.453C505.702 375.632 503.831 394.539 503.598 396.154ZM389.245 52.1379C391.63 54.4921 393.99 56.876 396.322 59.2864C396.051 59.2805 395.781 59.2749 395.511 59.2695C394.375 58.0681 393.232 56.8722 392.083 55.6837C391.143 54.4973 390.197 53.3152 389.245 52.1379ZM414.408 80.7677C418.102 85.4682 421.702 90.2502 425.194 95.0964C411.428 76.9252 422.613 91.9167 413.959 81.1225C414.108 81.0042 414.258 80.886 414.408 80.7677ZM448.131 130.924C447.66 130.349 447.187 129.776 446.713 129.204C443.684 124.074 440.535 118.985 437.291 113.98C439.001 117.368 440.665 120.777 442.281 124.204C443.419 126.067 444.538 127.932 445.646 129.81C446.475 130.178 447.303 130.549 448.131 130.924ZM-159.297 704.308C-162.317 702.364 -172.801 695.457 -172.42 695.848C-168.279 699.012 -164.066 702.112 -159.812 705.123C-159.663 704.941 -159.514 704.76 -159.365 704.578C-158.816 705.081 -158.265 705.583 -157.712 706.084C-155.185 707.635 -152.642 709.16 -150.083 710.658C-148.925 711.624 -147.76 712.585 -146.59 713.54C-145.183 714.126 -143.782 714.7 -142.375 715.268C-154.391 707.508 -154.099 707.969 -156.616 706.378C-157.879 705.552 -158.595 704.905 -159.001 704.549C-159.1 704.469 -159.198 704.388 -159.297 704.308ZM7.08615 769.428C-9.71277 766.545 -19.3925 764.912 -31.1976 761.364C-23.9849 765.136 26.6115 773.471 44.6281 774.827C46.512 774.791 48.3968 774.742 50.2829 774.682C40.4268 774.224 33.7733 773.162 28.9767 772.582C25.1945 772.111 25.5713 772.329 25.2816 772.294C25.268 772.293 25.2545 772.291 25.2408 772.29C16.3974 771.117 13.7658 770.522 7.08615 769.428ZM503.993 383.438C503.355 387.97 502.514 395.955 502.895 396.095C503.521 391.642 504.072 387.229 504.557 382.785C504.377 383.69 504.105 382.662 503.993 383.438ZM450.596 137.508C452.257 140.685 456.339 148.081 454.928 144.704C454.692 144.093 450.404 136.819 453.347 140.85C449.348 133.659 449.654 135.704 450.596 137.508ZM289.007 719.97C291.623 718.466 294.22 716.936 296.801 715.38C297.319 714.879 297.836 714.377 298.351 713.874C295.267 715.944 292.152 717.976 289.007 719.97ZM505.233 344.708C506.016 340.674 505.131 333.83 505.43 326.327C505.304 323.565 505.149 320.757 504.969 317.983C504.968 317.976 504.968 317.969 504.967 317.962C504.744 317.901 504.521 317.841 504.298 317.78C504.891 326.807 505.197 335.667 505.233 344.708ZM110.657 774.242C112.515 774.2 114.371 774.146 116.225 774.08C119.492 773.665 122.773 773.21 126.054 772.717C124.265 772.836 122.471 772.943 120.68 773.039C117.352 773.478 114.012 773.88 110.657 774.242ZM502.169 296.032C503.16 305.709 504.209 309.299 502.873 296.902C502.257 291.687 501.01 285.926 502.169 296.032ZM-287.652 572.316C-285.949 575.179 -284.213 578.022 -282.445 580.843C-281.703 581.713 -280.958 582.579 -280.21 583.442C-282.746 579.775 -285.227 576.067 -287.652 572.316ZM425.998 98.622C426.344 98.8547 426.689 99.088 427.035 99.3219C428.729 101.762 430.398 104.221 432.041 106.697C431.502 106.161 430.961 105.626 430.418 105.092C428.964 102.922 427.491 100.765 425.998 98.622ZM-275.443 591.093C-273.948 593.297 -272.433 595.486 -270.897 597.661C-269.793 599.069 -268.681 600.469 -267.56 601.862C-268.984 599.821 -270.391 597.768 -271.78 595.702C-273.011 594.175 -274.232 592.639 -275.443 591.093ZM481.674 206.543C482.774 210.1 487.869 224.167 483.839 211.316C481.175 203.167 481.506 206.011 481.674 206.543ZM474.465 187.758C479.27 201.152 477.3 190.451 469.521 175.289C476.385 190.949 474.124 186.992 474.465 187.758ZM411.029 80.684C410.805 80.4057 410.819 80.0182 409.031 77.7958C402.616 69.7737 393.679 59.5694 388.628 54.2292C377.227 40.5823 335.63 5.9231 330.461 2.23016C329.488 1.3281 332.195 2.77139 331.776 2.43523C330.565 1.42467 323.069 -3.68275 324.618 -2.96845C331.877 2.18018 338.982 7.55884 345.909 13.1486C344.063 11.9567 342.21 10.7797 340.348 9.61777C357.712 23.3599 351.893 18.9043 357.112 22.6086C359.825 25.2106 362.501 27.8458 365.141 30.5139C371.306 35.8658 377.323 41.3954 383.181 47.0959C381.78 45.8745 380.372 44.6628 378.957 43.4608C387.425 52.3826 385.12 49.8501 390.014 54.4915C389.917 54.6012 389.819 54.7109 389.722 54.8206C398.057 63.2878 399.158 65.4079 400.869 67.3524C404.268 71.4112 410.29 75.3302 421.104 92.6288C426.834 99.0392 425.317 99.8839 428.9 103.508C436.299 115.979 421.183 92.9896 412.953 82.8831C412.949 82.8778 412.945 82.8724 412.94 82.867C412.333 82.0957 413.182 83.4109 411.029 80.684ZM452.855 142.01C448.15 134.614 464.063 165.297 459.784 154.64C459.047 153.098 458.302 151.561 457.547 150.029C456.008 147.33 454.443 144.656 452.845 141.992C452.849 141.998 452.852 142.004 452.855 142.01ZM490.172 457.307C481.634 488.18 487.176 470.847 489.707 460.266C490.197 458.151 490.387 456.971 490.172 457.307ZM-16.712 764.224C-17.1888 764.211 -17.666 764.197 -18.1429 764.182C-7.634 766.64 12.7881 770.362 12.6293 769.636C2.74792 768.168 -6.95462 766.379 -16.712 764.224ZM67.5361 774.021C65.2214 773.963 55.8429 773.503 56.9674 773.768C61.021 774.117 65.0944 774.411 69.1865 774.647C71.0955 774.58 73.0062 774.499 74.9187 774.407C72.2467 774.365 68.1593 774.047 67.5361 774.021Z" fill="#A4F4CF"/>
</g>
</svg>
