<?xml version="1.0" encoding="UTF-8"?>
<svg width="18px" height="10px" viewBox="0 0 18 10" version="1.1" xmlns="http://www.w3.org/2000/svg" xmlns:xlink="http://www.w3.org/1999/xlink">
    <title>wo</title>
    <defs>
        <path d="M0,0 L1440,0 L1440,54 L0,54 L0,0 Z" id="path-1"></path>
    </defs>
    <g id="Symbols" stroke="none" stroke-width="1" fill="none" fill-rule="evenodd">
        <g id="footer" transform="translate(-24, -22)" xlink:href="#path-1">
            <path stroke="#E2E8F0" stroke-width="1" d="M1439.5,53.4999992 L0.500001006,53.4999992 L0.500001006,0.500000756 L1439.5,0.500000756 Z" stroke-linejoin="square"></path>
            <g id="Stack-2" transform="translate(24, 21)" fill="#6A7282" fill-rule="nonzero">
                <path d="M13.9821271,1.5 C16.643355,1.5 18,3.45140678 18,5.58785327 L18,6.41214673 C18,8.54859322 16.643355,10.5 13.9821271,10.5 C11.3208992,10.5 9.9642542,8.54859322 9.9642542,6.41214673 L9.9642542,5.58785327 C9.9642542,3.45140678 11.3208992,1.5 13.9821271,1.5 Z M1.8958827,1.65140155 L3.40910362,8.22897157 L5.14844287,1.65140155 L7.44437024,1.65140155 L9.9642542,10.3485953 L8.08792695,10.3485953 L6.29640656,3.77102843 L4.48749244,10.3485953 L2.05677929,10.3485953 L0,1.81962584 L0,1.65140155 L1.8958827,1.65140155 Z M13.9821271,3.16542015 C12.4688629,3.16542015 11.7905404,4.29252299 11.7905404,5.58785327 L11.7905404,6.41214673 C11.7905404,7.70747701 12.4688629,8.81775711 13.9821271,8.81775711 C15.4953913,8.81775711 16.1737138,7.70747701 16.1737138,6.41214673 L16.1737138,5.58785327 C16.1737138,4.29252299 15.4953913,3.16542015 13.9821271,3.16542015 Z" id="wo"></path>
            </g>
        </g>
    </g>
</svg>