<?xml version="1.0" encoding="UTF-8"?>
<svg width="512px" height="512px" viewBox="0 0 512 512" version="1.1" xmlns="http://www.w3.org/2000/svg" xmlns:xlink="http://www.w3.org/1999/xlink">
    <title>favicon</title>
    <defs>
        <path d="M0,0 L512,0 L512,512 L0,512 L0,0 Z" id="path-1"></path>
    </defs>
    <g id="favicon" stroke="none" fill="none" xlink:href="#path-1" fill-rule="nonzero">
        <g id="ph/waveform-bold" transform="translate(24, 24)" fill="#FF2056">
            <path d="M108.75,174 L108.75,290 C108.75,302.012193 99.0121933,311.75 87,311.75 C74.9878067,311.75 65.25,302.012193 65.25,290 L65.25,174 C65.25,161.987807 74.9878067,152.25 87,152.25 C99.0121933,152.25 108.75,161.987807 108.75,174 M159.5,36.25 C147.487807,36.25 137.75,45.9878067 137.75,58 L137.75,406 C137.75,418.012193 147.487807,427.75 159.5,427.75 C171.512193,427.75 181.25,418.012193 181.25,406 L181.25,58 C181.25,45.9878067 171.512193,36.25 159.5,36.25 M232,94.25 C219.987807,94.25 210.25,103.987807 210.25,116 L210.25,348 C210.25,360.012193 219.987807,369.75 232,369.75 C244.012193,369.75 253.75,360.012193 253.75,348 L253.75,116 C253.75,103.987807 244.012193,94.25 232,94.25 M304.5,152.25 C292.487807,152.25 282.75,161.987807 282.75,174 L282.75,290 C282.75,302.012193 292.487807,311.75 304.5,311.75 C316.512193,311.75 326.25,302.012193 326.25,290 L326.25,174 C326.25,161.987807 316.512193,152.25 304.5,152.25 M377,123.25 C364.987807,123.25 355.25,132.987807 355.25,145 L355.25,319 C355.25,331.012193 364.987807,340.75 377,340.75 C389.012193,340.75 398.75,331.012193 398.75,319 L398.75,145 C398.75,132.987807 389.012193,123.25 377,123.25" id="Shape"></path>
        </g>
    </g>
</svg>