<?xml version="1.0" encoding="UTF-8"?>
<svg width="32px" height="23px" viewBox="0 0 32 23" version="1.1" xmlns="http://www.w3.org/2000/svg" xmlns:xlink="http://www.w3.org/1999/xlink">
    <title>logo-small-grayscale</title>
    <defs>
        <path d="M0,0 L32,0 L32,23 L0,23 L0,0 Z" id="path-1"></path>
    </defs>
    <g id="logo-small-grayscale" stroke="none" fill="none" xlink:href="#path-1" fill-rule="evenodd" stroke-width="1">
        <g id="Short" transform="translate(0.7619, 0.6077)">
            <path d="M28.1138052,21.7840573 C26.5493198,21.7840573 25.7517629,20.5979499 25.7517629,19.2992354 L25.7517629,18.7982178 C25.7517629,17.4995033 26.5493198,16.3133959 28.1138052,16.3133959 C29.6784431,16.3133959 30.476,17.4995033 30.476,18.7982178 L30.476,19.2992354 C30.476,20.5979499 29.6784431,21.7840573 28.1138052,21.7840573 Z M26.8254323,19.2992354 C26.8254323,20.0865706 27.2242108,20.761451 28.1138052,20.761451 C29.0035521,20.761451 29.4023305,20.0865706 29.4023305,19.2992354 L29.4023305,18.7982178 C29.4023305,18.0107302 29.0035521,17.3256404 28.1138052,17.3256404 C27.2242108,17.3256404 26.8254323,18.0107302 26.8254323,18.7982178 L26.8254323,19.2992354 Z M23.571967,21.6920212 L23.571967,16.405432 L24.6456364,16.405432 L24.6456364,21.6920212 L23.571967,21.6920212 Z M23.3878919,15.0249364 C23.3878919,14.6056846 23.7048423,14.3193671 24.1139826,14.3193671 C24.5127611,14.3193671 24.8399209,14.6056846 24.8399209,15.0249364 C24.8399209,15.4442339 24.5127611,15.7509701 24.1139826,15.7509701 C23.7048423,15.7509701 23.3878919,15.4442339 23.3878919,15.0249364 Z M19.6937436,21.7840573 C18.1393152,21.7840573 17.4133769,20.5979499 17.4133769,19.2992354 L17.4133769,18.7982178 C17.4133769,17.4995033 18.1393152,16.3133959 19.6937436,16.3133959 C20.2765971,16.3133959 20.7366323,16.5076773 21.0639445,16.8144135 L21.0639445,14.5340976 L22.137614,14.5340976 L22.137614,21.6920212 L21.0639445,21.6920212 L21.0639445,21.2830397 C20.7366323,21.5897758 20.2765971,21.7840573 19.6937436,21.7840573 Z M18.4870464,19.2992354 C18.4870464,20.0865706 18.8858248,20.761451 19.7754193,20.761451 C20.6651661,20.761451 21.0639445,20.0865706 21.0639445,19.2992354 L21.0639445,18.7982178 C21.0639445,18.0107302 20.6651661,17.3256404 19.7754193,17.3256404 C18.8858248,17.3256404 18.4870464,18.0107302 18.4870464,18.7982178 L18.4870464,19.2992354 Z M14.0672645,21.773848 C12.5845309,21.773848 11.8482917,20.7716603 11.8482917,19.5753436 L11.8482917,16.405432 L12.9219916,16.405432 L12.9219916,19.5447157 C12.9219916,20.3218416 13.3514746,20.761451 14.0672645,20.761451 C14.7830695,20.761451 15.2125525,20.3218416 15.2125525,19.5447157 L15.2125525,16.405432 L16.286222,16.405432 L16.286222,19.5753436 C16.286222,20.7716603 15.5500742,21.773848 14.0672645,21.773848 Z M9.68306329,21.6920212 C8.82409723,21.6920212 8.33326601,21.150014 8.33326601,20.280852 L8.33326601,17.3768393 L7.49474935,17.3768393 L7.49474935,16.405432 L8.36394011,16.405432 L8.36394011,15.1169573 L9.40696597,15.1169573 L9.40696597,16.405432 L10.6033775,16.405432 L10.6033775,17.3768393 L9.40696597,17.3768393 L9.40696597,20.158188 C9.40696597,20.546751 9.55012698,20.7206138 9.93871122,20.7206138 L10.8283514,20.7206138 L10.8283514,21.6920212 L9.68306329,21.6920212 Z M4.63250438,21.7840573 C3.2929318,21.7840573 2.47486453,21.0785489 2.44419044,19.9332787 L3.52811509,19.9332787 C3.54857973,20.424087 3.88602524,20.761451 4.63250438,20.761451 C5.36875883,20.761451 5.67553024,20.5059138 5.67553024,20.1683973 C5.67553024,19.8616612 5.47102104,19.6673797 4.9188264,19.5753436 L4.08030974,19.4218994 C3.17022019,19.2583982 2.65893957,18.7572282 2.65893957,17.9084848 C2.65893957,17.0189043 3.38495408,16.3133959 4.61205498,16.3133959 C5.93117817,16.3133959 6.65720792,17.0598938 6.64696798,18.0313012 L5.57326802,18.0313012 C5.55281863,17.5609115 5.18469902,17.2950125 4.61205498,17.2950125 C4.02918625,17.2950125 3.73263953,17.5711208 3.73263953,17.8778569 C3.73263953,18.1845931 3.95759812,18.3380373 4.31550827,18.3994455 L5.19492372,18.5527374 C6.26862368,18.7470189 6.7492302,19.3502819 6.7492302,20.1683973 C6.7492302,21.1193861 5.98230166,21.7840573 4.63250438,21.7840573 Z M0.756705366,21.7840573 C0.32722386,21.7840573 0,21.4567501 0,21.0375593 C0,20.6183685 0.32722386,20.280852 0.756705366,20.280852 C1.17596065,20.280852 1.52363695,20.6183685 1.52363695,21.0375593 C1.52363695,21.4567501 1.17596065,21.7840573 0.756705366,21.7840573 Z" id=".studio" fill="#6A7282" fill-rule="nonzero"></path>
            <path d="M24.819502,13.1003461 C21.072935,13.1003461 19.163004,10.2598901 19.163004,7.15009136 L19.163004,5.95025473 C19.163004,2.84045602 21.072935,0 24.819502,0 C28.5660691,0 30.476,2.84045602 30.476,5.95025473 L30.476,7.15009136 C30.476,10.2598901 28.5660691,13.1003461 24.819502,13.1003461 Z M21.7341118,7.15009136 C21.7341118,9.03556635 22.6890772,10.6516834 24.819502,10.6516834 C26.9499268,10.6516834 27.9048923,9.03556635 27.9048923,7.15009136 L27.9048923,5.95025473 C27.9048923,4.06477974 26.9499268,2.42417559 24.819502,2.42417559 C22.6890772,2.42417559 21.7341118,4.06477974 21.7341118,5.95025473 L21.7341118,7.15009136 Z M3.20779709,12.8799623 L0,0.465245452 L0,0.220379184 L2.66908808,0.220379184 L4.79945191,9.79465071 L7.24815279,0.220379184 L10.4804374,0.220379184 L12.9046508,9.79465071 L15.0350298,0.220379184 L17.6795847,0.220379184 L17.6795847,0.465245452 L14.4963056,12.8799623 L11.3864584,12.8799623 L8.86429507,3.30569538 L6.31764432,12.8799623 L3.20779709,12.8799623 Z" id="wo" fill="#101828" fill-rule="nonzero"></path>
        </g>
    </g>
</svg>